<?xml version="1.0" encoding="UTF-8"?>
<svg id="Capa_1" data-name="Capa 1" xmlns="http://www.w3.org/2000/svg" xmlns:xlink="http://www.w3.org/1999/xlink" viewBox="0 0 600 400">
  <defs>
    <style>
      .cls-1 {
        fill: none;
      }

      .cls-2 {
        clip-path: url(#clippath-1);
      }

      .cls-3 {
        clip-path: url(#clippath);
      }
    </style>
    <clipPath id="clippath">
      <rect class="cls-1" x="45.38" y="158.5" width="509.23" height="100.35"/>
    </clipPath>
    <clipPath id="clippath-1">
      <rect class="cls-1" x="678.55" y="67.73" width="562.89" height="264.53" transform="translate(1920 400) rotate(-180)"/>
    </clipPath>
  </defs>
  <g class="cls-3">
    <g>
      <path d="M547.94,174.69l.23,1.24c-.66,5.63-.85,11.13-.5,16.79.12,1.95.03,3.76-.16,5.57l-1.26,1.57c-1.7.65-3.44,1.15-5.41,1.2l-15.5.41c-1.55.04-2.74.76-2.74,2.53l-.02,4.67-.39,10.04c-.08,2.02-1.31,3.2-3.4,3.25l-13.67.35-182.57,2.73-122.31,1.21c-2.6.03-9.45-.9-8.84,2.55.49,2.77-4.44,3.17-6.54,3.32-5.04.36-9.86.11-14.98.01l-60.27-1.19c-2.27-.05-2.95,5.6-4.74,8.54-7.21,11.83-21.51,16.8-34.01,10.14-4.53-2.41-8.45-5.89-11.23-10.21-.99-1.54-1.45-3.43-2.22-5.06-.82-1.73-2.64-2.59-4.46-1.57l-6.3,3.52c-7.03,3.93-12.04,10.19-14.87,17.73l-3.04,8.12c-2,5.34-5.67,7.16-11.09,6.21-9.54-1.67-17.3-3.11-26.77.5-2.9,1.11-5.65,2.29-8.32,3.88l-13.48,7.99c-18.28,10.84-36.47,21.59-55.52,31.14-15.66,7.84-31.45,15.19-47.42,22.17-1.32.57-2.47.67-3.69.61l-2.44-1.95c-2.09-2.95-4.28-5.87-6.21-9.13-2.19-3.72-4.69-7.08-6.59-10.98-5.88-12.06-10.46-24.58-14.31-37.43-1.79-5.98-4.77-18-2.46-23.54l1.05-1.31,2.79-.91c4.44-1.45,8.72-2.67,13.31-3.78l26.13-6.3c25.14-6.06,49.99-12.53,74.48-20.73l16.98-5.69c4.63-1.55,9.45-1.48,13.97.51,6.23,2.74,12.35,5.28,18.95,6.86,4.54,1.08,8.89,1.22,13.45.13l11.59-13.46c7.63-8.87,15.15-16.63,26.02-21.31,7.48-3.22-5.97-14.18-3.67-17.83,1.18-1.88,5.91-1.54,7.97-1.13,3.17.63,6.17,2.14,8.99,3.8,3.65,2.15,2.7,5.37,5.12,5.9,1.99.43,3.83.77,5.85.8l17.72.33,54.23-.54c112.17-1.13,224.07-3.94,336.23-3.52l64.13.24c.38,0,.89.1,1.1.12l1.12.9ZM196.69,200.45l27.44-.27,68.66-1.14,137.2-2.04,75.23-.99,16.64-.07c6.32.1,12.45.09,18.94-.32,1.34-5.72,1.78-11.37,1.16-17.22l-127.33,2.09-97.42.85-73.18.8-54.83.56c-.98.25-1.12,1.78-1.06,2.63l.91,11.74c.05.63.17,1.33-.04,1.81l-.34.77c-.34.77,7.43.81,8.02.8ZM223.91,221.84l75.83-1.16c65.7-1.01,131.18-2.32,196.81-1.46l11.34.15c3.48.05,6.71.01,10.26-.26.63-2.09.96-3.94,1.07-6l.5-9.48c.03-.48.19-.91.46-1.75-5.48-.18-10.85-.17-16.35-.06l-133.44,2.59-94.03,1.71-86.93,1.5c2.16,5.68-.53,8.29-.57,11.44-.03,2.35,8.34,2.7,10.37,2.7l24.68.07ZM70.06,225.6l46.84,1.23,49.38.69c4.08.06,7.79.08,11.79.63,1.46.2,3.07.34,4.5-.03,1.2-.31,1.53-1.78,1.88-2.84.17-2.97.14-5.68.06-8.7l-.82-33.78-33.45.23-35.92.55c-3.68.27-7.05.14-10.72.07-8.17-.14-16.15-.29-24.31.06-1.94.08-12.21.55-12.33,2.88l.98,37.58c.02.82,1.29,1.42,2.11,1.44ZM55.16,182.68l6.41-1.9c.89-.26,2.64-.88,2.39-2.06-.69-2.13-2.79-3.49-4.83-4.6l-8.52-4.61c-.18-.1-.7-.06-.83-.07s.05.57.14.73c2.44,4.34,4.3,7.39,5.23,12.5ZM-139.46,322.97c1.32,1.65,2.76,2.95,3.61,4.95.41.97,1.56,1.4,2.59.97,2.38-.98,4.51-2.05,6.86-3.41,24.03-13.9,48.11-27.58,72.79-40.45l47.1-24.57c4.31-2.25,15.9.07,20.54.77,3.23.49,6.4.82,9.69.78,1.46-5.43,3.29-10.33,6.09-15.13,7.52-12.9,19.1-19.5,33.82-21.69.28-5.19.12-10.15-.11-15.29l-.72-16.26c-.12-2.69.58-5.85-.21-6.52-.25-.22-.95-.1-1.4.03-9.21,2.72-17.72,6.77-25.4,12.55-6.58,4.95-11.64,10.92-15.9,17.88-3.06,5.01-8.21,7.91-13.9,8.35-6.88.53-13.81-1.69-20.32-3.82-3.74-1.22-7.25-2.7-11.11-3.6-4.68-1.09-14.84,3.22-19.55,4.6l-26.16,7.64-44.74,11.92-49.54,11.4c-.49,1.65-.57,3.16-.36,4.7,2.52,18.49,14.72,49.64,26.35,64.18ZM63.65,236.98c3.42,4.82,8.18,8.38,13.71,10.36,11.88,4.26,21.22-3.63,25.88-14.2.28-.63.32-2-.2-2.36-.84-.57-2.38-.34-3.13.22-1.89,5.65-5.8,10.14-11.72,11.98-4.96,1.54-10.91.75-15.54-2.7-3.22-2.41-5.32-5.52-6.68-9.35-.31-.88-2.55-.69-3.53-.11-1.7,1,.21,4.74,1.21,6.16ZM74.17,230.29c-.66-1.27-3.3-.87-4.37-.4-3.57,1.59,3.46,8.17,9.01,9.64,11.37,3.02,22.42-8.63,16.84-9.01l-2.78-.19c-1.27-.09-2.51.55-2.97,1.83l-1.05,2.95c-.76,2.15-2.5,3.22-4.67,3.43-2.93.28-6.01-.52-7.48-3.36l-2.54-4.9ZM80.68,234.5c3.8,1.72,6.95-2.38,6.76-3.12-.48-1.84-7.97-1.71-10.11-1.17.39,1.98,1.65,3.52,3.35,4.3Z"/>
      <path d="M1.64,239.57c2.72.2,8.54,1.15,9.02,3.85s-5.61,5.46-7.98,6.49c-6.63,2.87-13.66,4.53-20.8,5.49-.93.12-1.84-.05-2.64-.55,3.31-3.02,8.21-5.15,12.87-4.16.02-.68-.09-1.67-.45-2.13-2.02-2.6-8.03-.15-10.84,1.88-1.68,1.21-5.32,3.76-5.34,5.79s5.56,2.05,7.28,1.9c8.23-.72,16.24-2.62,23.83-5.91,4.61-2,6.05-3.78,6.17-8.71.14-6.01-6.81-7.68-11.61-7.87-12.1-.47-27.42,3.77-38.56,8.33-2.46,1.01-4.44,2.23-6.69,3.61-8.79,5.43-17.17,11.07-25.64,17.12l-23.19,16.56c-8.92,6.37-18.25,11.48-28.05,16.35-4.54,2.25-8.77,4.45-13.12,6.93-1.02.58-2.1,1.33-2.34,2.62,18.26-6.28,36.06-16.99,51.68-27.93l22.24-15.57c6.22-4.35,12.35-8.3,18.95-12.02,14.03-7.9,28.79-13.3,45.21-12.07Z"/>
      <path d="M-108.35,275.92c-1.54-2.86-8.47-.09-10.09,2.57.9,1.36,4.78-1.09,6.15.27-2.02,2.31-18,10.72-19.68,7.88-.83-1.39,2.05-5.03,3.15-6.25,16.34-18.2,38.45-30.97,61.63-38.55,29.3-9.57,60.55-12.27,91-7.98,1.26.18,4.55,1.69,5.13.13.11-.28-.27-.81-.66-.93-6.89-2.25-13.76-3.57-20.97-4.23-7.6-.69-14.98-.91-22.56-.06l-18.61,2.09c-27.33,3.07-53.63,12.33-76.03,28.42-7.42,5.33-22.7,17.99-24.07,26.85-.27,1.76.9,3.24,2.7,3.32s3.77-.24,5.57-.88c4.23-1.52,8.22-3.41,12.06-5.76,1.85-1.13,6.51-4.6,5.28-6.89Z"/>
      <path d="M34.87,213c.27-1.46,1.1-2.07,2.09-2.79,4.2-3.05,8.69-5.44,13.52-7.38,1.16-.47,3.99-1.39,4.9-.68.2.16.19.96.02,1.14l-7.99,8.65c-4.54,4.91-8.79,9.78-12.11,15.78,1.65-.22,2.59-1.24,3.65-2.22,6.12-5.64,11.71-11.63,16.8-18.27,1.22-1.59,2.73-3.41,2.96-5.33s-2.09-3.3-3.74-3.35c-1.82-.06-3.42.15-5.13.7-5.96,1.9-13.71,6.23-17.22,11.53-.68,1.03-.69,2.35-.43,3.5s1.12,2.22,2.47,2.15c1.93-.09,4.03-.99,5.03-2.89.75-1.43-3.78-.06-4.83-.53Z"/>
      <path d="M113.27,193.12c1.21-.69,2.48-1.07,3.81-1.06l8.85.05c4.77.03,9.33.09,14.11-.19,8.93-.52,18.38-1.21,27.1,1.08l.37,10.63c.06,1.59-.13,3.15-.33,4.74-.88,3.42-5.63,3.33-8.79,3.36l-10.62.1c-3.63.03-7.07-.1-10.69.1-7.67.41-16,1.03-23.5-1.32-2.03-3.44-1.03-13.72-.32-17.49ZM145.5,208.15l10.07.02c2.78,0,5.32-.21,8.1-.73,1.46-2.62.59-8.5.59-11.79-13.69.68-25.93-.38-39.67.69l-1.01,9.55c-.09.88.17,1.66.73,2.39,1.31.19,2.37.33,3.74.3l17.45-.43ZM119.16,208.48c.73-.16,1.32-1.49,1.39-2.3l.87-9.28c.02-.41-1.06-.94-1.52-.93l-3.43.1-.4,11.65c.95.51,1.99,1.01,3.08.76Z"/>
      <path d="M73.36,218.63c-.43-1.72.51-2.68-.16-3.67s-2.47,1.81-2.09,4.54c1.05,7.48,20.79.78,4.67.46-.88-.02-2.19-.36-2.43-1.33Z"/>
      <path d="M174.62,190.04l1.24,5.4c.06.27.73.85.94.76,1.52-.64,2.03-6.22,1.12-7.97-2.15-.48-6.27-1.76-8.01-1.31-.17.04.27.72.43.81l4.27,2.31Z"/>
    </g>
  </g>
  <g class="cls-2">
    <path d="M-139.07,108.03c.57-.03,1.91-.3,2.91-.31l169.06-.63c295.67-1.1,590.67,6.31,886.36,9.28l142.95,1.44,46.71-.87c5.32-.1,10.17-.99,15.42-2.12,6.39-1.37,3.86-9.87,13.49-15.54,7.44-4.38,15.35-8.35,23.71-10.02,5.42-1.08,17.89-1.98,21,2.97,6.05,9.61-29.41,38.5-9.68,46.99,28.64,12.32,48.46,32.8,68.58,56.17l30.55,35.48c12.02,2.88,23.49,2.52,35.46-.34,17.4-4.15,33.55-10.85,49.96-18.08,11.91-5.24,24.63-5.43,36.83-1.34l44.76,15c64.56,21.64,130.07,38.67,196.33,54.66l68.88,16.62c12.1,2.92,23.38,6.15,35.09,9.96l7.35,2.39,2.77,3.46c6.09,14.6-1.76,46.3-6.48,62.05-10.16,33.88-22.22,66.86-37.73,98.66-5.02,10.3-11.6,19.16-17.38,28.95-5.08,8.6-10.84,16.27-16.36,24.06l-6.43,5.14c-3.22.15-6.27-.1-9.73-1.61-42.1-18.4-83.73-37.76-125.01-58.44-50.23-25.16-98.17-53.51-146.36-82.08l-35.53-21.07c-7.05-4.18-14.3-7.3-21.94-10.22-24.98-9.52-45.43-5.74-70.57-1.32-14.27,2.51-23.94-2.27-29.23-16.36l-8.03-21.4c-7.45-19.87-20.64-36.37-39.19-46.75l-16.6-9.28c-4.81-2.69-9.59-.41-11.75,4.15-2.04,4.3-3.24,9.28-5.86,13.35-7.34,11.39-17.68,20.55-29.61,26.91-32.94,17.55-70.65,4.46-89.65-26.73-4.72-7.75-6.5-22.63-12.49-22.51l-158.87,3.15c-13.48.27-26.2.92-39.48-.03-5.53-.39-18.53-1.46-17.24-8.75,1.61-9.08-16.45-6.64-23.31-6.71l-322.44-3.2-481.29-7.19-36.03-.92c-5.51-.14-8.75-3.26-8.96-8.58l-1.03-26.45-.06-12.32c-.02-4.67-3.15-6.57-7.24-6.68l-40.85-1.09c-5.18-.14-9.78-1.47-14.26-3.17l-3.31-4.15c-.48-4.77-.73-9.54-.41-14.68.94-14.93.43-29.43-1.31-44.27l.6-3.27,2.97-2.37ZM805.07,176.19l-.9-2.04c-.55-1.25-.24-3.11-.11-4.77l2.39-30.94c.17-2.22-.2-6.26-2.79-6.93l-144.53-1.47-192.93-2.1-256.8-2.25-335.67-5.51c-1.65,15.42-.47,30.32,3.06,45.4,17.13,1.08,33.28,1.11,49.94.84l43.85.18,198.33,2.62,361.69,5.38,180.99,3,72.34.71c1.55.02,22.05-.08,21.14-2.12ZM777.23,234.52c5.34-.02,27.41-.92,27.33-7.12-.11-8.3-7.19-15.17-1.5-30.15l-229.16-3.95-247.87-4.51-351.77-6.83c-14.49-.28-28.64-.33-43.1.15.71,2.21,1.15,3.33,1.22,4.61l1.31,24.99c.28,5.43,1.15,10.29,2.81,15.81,9.34.7,17.86.79,27.04.67l29.89-.39c173.03-2.27,345.64,1.21,518.84,3.86l199.9,3.06,65.07-.19ZM1123.32,240.82l2.58-99.06c-.32-6.14-27.39-7.36-32.5-7.58-21.51-.91-42.57-.53-64.09-.15-9.66.17-18.56.53-28.26-.19l-94.69-1.44-88.19-.6-2.16,89.06c-.19,7.95-.28,15.1.16,22.93.93,2.79,1.8,6.67,4.96,7.48,3.77.96,8.01.6,11.86.07,10.55-1.45,20.34-1.51,31.09-1.66l130.18-1.82,123.49-3.23c2.16-.06,5.51-1.63,5.56-3.81ZM1170.8,98.52c.23-.41.72-1.94.37-1.92s-1.72-.07-2.19.19l-22.45,12.15c-5.37,2.91-10.91,6.49-12.73,12.12-.65,3.12,3.95,4.73,6.3,5.42l16.91,5.01c2.44-13.48,7.35-21.51,13.79-32.96ZM1739.54,332.1c.56-4.08.34-8.06-.95-12.4l-130.61-30.05-117.95-31.42-68.97-20.14c-12.42-3.63-39.2-15-51.55-12.12-10.16,2.37-19.42,6.26-29.28,9.48-17.15,5.61-35.44,11.47-53.57,10.06-15-1.16-28.57-8.82-36.65-22.02-11.23-18.35-24.56-34.08-41.91-47.14-20.26-15.25-42.7-25.93-66.97-33.09-1.18-.35-3.01-.66-3.68-.09-2.07,1.77-.23,10.1-.55,17.19l-1.91,42.87c-.6,13.55-1.03,26.63-.3,40.32,38.79,5.77,69.31,23.18,89.14,57.17,7.38,12.64,12.22,25.56,16.06,39.88,8.69.12,17.02-.76,25.55-2.05,12.22-1.85,42.78-7.96,54.13-2.03l124.17,64.77c65.07,33.94,128.53,70,191.89,106.64,6.2,3.58,11.82,6.4,18.09,8.99,2.73,1.13,5.75,0,6.83-2.57,2.23-5.28,6.03-8.71,9.51-13.06,30.66-38.35,62.82-120.45,69.45-169.2ZM1137.83,258.4c-2.57-1.52-8.48-2.02-9.3.3-3.6,10.11-9.13,18.31-17.61,24.65-12.2,9.11-27.88,11.19-40.96,7.12-15.61-4.86-25.92-16.69-30.9-31.59-1.97-1.46-6.03-2.08-8.25-.57-1.38.93-1.26,4.56-.53,6.21,12.28,27.86,36.89,48.65,68.21,37.42,14.58-5.22,27.12-14.61,36.14-27.32,2.64-3.72,7.67-13.59,3.2-16.23ZM1100.24,269.89c-3.87,7.49-12,9.6-19.73,8.86-5.73-.55-10.31-3.39-12.32-9.05l-2.76-7.79c-1.2-3.38-4.48-5.05-7.83-4.82l-7.32.5c-14.7,1.01,14.42,31.72,44.4,23.76,14.61-3.88,33.14-21.24,23.74-25.43-2.81-1.25-9.78-2.3-11.51,1.04l-6.68,12.92ZM1098.6,256.75c-5.64-1.42-25.38-1.76-26.65,3.09-.52,1.97,7.79,12.78,17.81,8.24,4.49-2.04,7.81-6.1,8.84-11.32Z"/>
  </g>
</svg>