<?xml version="1.0" encoding="UTF-8"?>
<svg id="Capa_1" data-name="Capa 1" xmlns="http://www.w3.org/2000/svg" xmlns:xlink="http://www.w3.org/1999/xlink" viewBox="0 0 600 400">
  <defs>
    <style>
      .cls-1 {
        fill: #1d1d1b;
        font-family: MyriadPro-Regular, 'Myriad Pro';
        font-size: 16.77px;
      }

      .cls-2 {
        fill: none;
      }

      .cls-3 {
        clip-path: url(#clippath);
      }
    </style>
    <clipPath id="clippath">
      <rect class="cls-2" x="18.55" y="67.73" width="562.89" height="264.53" transform="translate(600 400) rotate(-180)"/>
    </clipPath>
  </defs>
  <g class="cls-3">
    <g>
      <path d="M-799.07,108.03c.57-.03,1.91-.3,2.91-.31l169.06-.63c295.67-1.1,590.67,6.31,886.36,9.28l142.95,1.44,46.71-.87c5.32-.1,10.17-.99,15.42-2.12,6.39-1.37,3.86-9.87,13.49-15.54,7.44-4.38,15.35-8.35,23.71-10.02,5.42-1.08,17.89-1.98,21,2.97,6.05,9.61-29.41,38.5-9.68,46.99,28.64,12.32,48.46,32.8,68.58,56.17l30.55,35.48c12.02,2.88,23.49,2.52,35.46-.34,17.4-4.15,33.55-10.85,49.96-18.08,11.91-5.24,24.63-5.43,36.83-1.34l44.76,15c64.56,21.64,130.07,38.67,196.33,54.66l68.88,16.62c12.1,2.92,23.38,6.15,35.09,9.96l7.35,2.39,2.77,3.46c6.09,14.6-1.76,46.3-6.48,62.05-10.16,33.88-22.22,66.86-37.73,98.66-5.02,10.3-11.6,19.16-17.38,28.95-5.08,8.6-10.84,16.27-16.36,24.06l-6.43,5.14c-3.22.15-6.27-.1-9.73-1.61-42.1-18.4-83.73-37.76-125.01-58.44-50.23-25.16-98.17-53.51-146.36-82.08l-35.53-21.07c-7.05-4.18-14.3-7.3-21.94-10.22-24.98-9.52-45.43-5.74-70.57-1.32-14.27,2.51-23.94-2.27-29.23-16.36l-8.03-21.4c-7.45-19.87-20.64-36.37-39.19-46.75l-16.6-9.28c-4.81-2.69-9.59-.41-11.75,4.15-2.04,4.3-3.24,9.28-5.86,13.35-7.34,11.39-17.68,20.55-29.61,26.91-32.94,17.55-70.65,4.46-89.65-26.73-4.72-7.75-6.5-22.63-12.49-22.51l-158.87,3.15c-13.48.27-26.2.92-39.48-.03-5.53-.39-18.53-1.46-17.24-8.75,1.61-9.08-16.45-6.64-23.31-6.71l-322.44-3.2-481.29-7.19-36.03-.92c-5.51-.14-8.75-3.26-8.96-8.58l-1.03-26.45-.06-12.32c-.02-4.67-3.15-6.57-7.24-6.68l-40.85-1.09c-5.18-.14-9.78-1.47-14.26-3.17l-3.31-4.15c-.48-4.77-.73-9.54-.41-14.68.94-14.93.43-29.43-1.31-44.27l.6-3.27,2.97-2.37ZM145.07,176.19l-.9-2.04c-.55-1.25-.24-3.11-.11-4.77l2.39-30.94c.17-2.22-.2-6.26-2.79-6.93L-.88,130.05l-192.93-2.1-256.8-2.25-335.67-5.51c-1.65,15.42-.47,30.32,3.06,45.4,17.13,1.08,33.28,1.11,49.94.84l43.85.18,198.33,2.62,361.69,5.38,180.99,3,72.34.71c1.55.02,22.05-.08,21.14-2.12ZM117.23,234.52c5.34-.02,27.41-.92,27.33-7.12-.11-8.3-7.19-15.17-1.5-30.15l-229.16-3.95-247.87-4.51-351.77-6.83c-14.49-.28-28.64-.33-43.1.15.71,2.21,1.15,3.33,1.22,4.61l1.31,24.99c.28,5.43,1.15,10.29,2.81,15.81,9.34.7,17.86.79,27.04.67l29.89-.39c173.03-2.27,345.64,1.21,518.84,3.86l199.9,3.06,65.07-.19ZM463.32,240.82l2.58-99.06c-.32-6.14-27.39-7.36-32.5-7.58-21.51-.91-42.57-.53-64.09-.15-9.66.17-18.56.53-28.26-.19l-94.69-1.44-88.19-.6-2.16,89.06c-.19,7.95-.28,15.1.16,22.93.93,2.79,1.8,6.67,4.96,7.48,3.77.96,8.01.6,11.86.07,10.55-1.45,20.34-1.51,31.09-1.66l130.18-1.82,123.49-3.23c2.16-.06,5.51-1.63,5.56-3.81ZM510.8,98.52c.23-.41.72-1.94.37-1.92s-1.72-.07-2.19.19l-22.45,12.15c-5.37,2.91-10.91,6.49-12.73,12.12-.65,3.12,3.95,4.73,6.3,5.42l16.91,5.01c2.44-13.48,7.35-21.51,13.79-32.96ZM1079.54,332.1c.56-4.08.34-8.06-.95-12.4l-130.61-30.05-117.95-31.42-68.97-20.14c-12.42-3.63-39.2-15-51.55-12.12-10.16,2.37-19.42,6.26-29.28,9.48-17.15,5.61-35.44,11.47-53.57,10.06-15-1.16-28.57-8.82-36.65-22.02-11.23-18.35-24.56-34.08-41.91-47.14-20.26-15.25-42.7-25.93-66.97-33.09-1.18-.35-3.01-.66-3.68-.09-2.07,1.77-.23,10.1-.55,17.19l-1.91,42.87c-.6,13.55-1.03,26.63-.3,40.32,38.79,5.77,69.31,23.18,89.14,57.17,7.38,12.64,12.22,25.56,16.06,39.88,8.69.12,17.02-.76,25.55-2.05,12.22-1.85,42.78-7.96,54.13-2.03l124.17,64.77c65.07,33.94,128.53,70,191.89,106.64,6.2,3.58,11.82,6.4,18.09,8.99,2.73,1.13,5.75,0,6.83-2.57,2.23-5.28,6.03-8.71,9.51-13.06,30.66-38.35,62.82-120.45,69.45-169.2ZM477.83,258.4c-2.57-1.52-8.48-2.02-9.3.3-3.6,10.11-9.13,18.31-17.61,24.65-12.2,9.11-27.88,11.19-40.96,7.12-15.61-4.86-25.92-16.69-30.9-31.59-1.97-1.46-6.03-2.08-8.25-.57-1.38.93-1.26,4.56-.53,6.21,12.28,27.86,36.89,48.65,68.21,37.42,14.58-5.22,27.12-14.61,36.14-27.32,2.64-3.72,7.67-13.59,3.2-16.23ZM440.24,269.89c-3.87,7.49-12,9.6-19.73,8.86-5.73-.55-10.31-3.39-12.32-9.05l-2.76-7.79c-1.2-3.38-4.48-5.05-7.83-4.82l-7.32.5c-14.7,1.01,14.42,31.72,44.4,23.76,14.61-3.88,33.14-21.24,23.74-25.43-2.81-1.25-9.78-2.3-11.51,1.04l-6.68,12.92ZM438.6,256.75c-5.64-1.42-25.38-1.76-26.65,3.09-.52,1.97,7.79,12.78,17.81,8.24,4.49-2.04,7.81-6.1,8.84-11.32Z"/>
      <path d="M928.08,377.28c4.05-7.53,22.33-.25,26.59,6.77-2.37,3.58-12.59-2.86-16.22.72,5.32,6.09,47.44,28.26,51.88,20.78,2.18-3.66-5.42-13.27-8.3-16.47-43.08-47.97-101.36-81.65-162.47-101.62-77.24-25.24-159.63-32.34-239.9-21.04-3.33.47-11.99,4.45-13.53.35-.28-.75.71-2.13,1.74-2.46,18.16-5.94,36.28-9.41,55.28-11.14,20.03-1.83,39.5-2.4,59.48-.15l49.06,5.51c72.05,8.1,141.38,32.51,200.44,74.92,19.55,14.04,59.85,47.44,63.45,70.77.72,4.64-2.37,8.54-7.11,8.75s-9.93-.62-14.69-2.33c-11.16-4-21.68-8.99-31.8-15.18-4.87-2.99-17.16-12.13-13.92-18.17Z"/>
      <path d="M550.52,211.39c-.7-3.84-2.89-5.45-5.51-7.36-11.07-8.04-22.9-14.33-35.64-19.47-3.05-1.23-10.52-3.67-12.93-1.79-.54.42-.5,2.52-.04,3.01l21.05,22.79c11.96,12.94,23.18,25.78,31.92,41.6-4.36-.58-6.83-3.27-9.62-5.85-16.14-14.87-30.88-30.66-44.28-48.17-3.2-4.19-7.2-9-7.82-14.04-.63-5.09,5.51-8.69,9.85-8.84,4.79-.16,9.01.4,13.52,1.84,15.7,5,36.15,16.43,45.4,30.4,1.8,2.72,1.82,6.18,1.14,9.22s-2.96,5.84-6.52,5.68c-5.08-.23-10.63-2.6-13.26-7.63-1.97-3.76,9.97-.17,12.72-1.41Z"/>
      <path d="M342.98,205.09c-19.76,6.17-41.73,4.54-61.95,3.47-9.54-.5-18.62-.16-28.19-.25l-27.99-.26c-8.32-.08-20.83.15-23.16-8.86-.52-4.19-1-8.31-.86-12.49l.98-28.03c22.99-6.03,47.9-4.23,71.45-2.84,12.6.74,24.62.58,37.18.5l23.32-.13c3.52-.02,6.85.98,10.05,2.8,1.88,9.94,4.51,37.03-.85,46.1ZM304.86,199.75c3.59.09,6.39-.29,9.85-.78,1.48-1.9,2.18-3.97,1.93-6.29l-2.66-25.19c-36.24-2.83-68.49-.03-104.59-1.82,0,8.67-2.28,24.17,1.57,31.07,7.33,1.39,14.02,1.95,21.36,1.93l26.55-.05,45.99,1.14ZM336.44,197.47l-1.04-30.71-9.03-.26c-1.21-.04-4.07,1.38-4.01,2.45l2.29,24.46c.2,2.13,1.75,5.64,3.68,6.07,2.88.64,5.62-.68,8.12-2.02Z"/>
      <path d="M449.05,226.24c1.12-4.53-1.34-7.06.42-9.68,1.72-2.57,6.5,4.78,5.5,11.97-2.76,19.71-54.81,2.06-12.31,1.22,2.33-.05,5.77-.96,6.4-3.5Z"/>
      <path d="M182.12,150.86l-3.27,14.25c-.16.7-1.93,2.24-2.47,2.01-4.02-1.68-5.36-16.39-2.96-21.02,5.67-1.28,16.53-4.63,21.11-3.46.44.11-.7,1.89-1.14,2.13l-11.26,6.09Z"/>
    </g>
  </g>
  <text class="cls-1" transform="translate(223.2 189.48)"><tspan x="0" y="0">N° DE SERIE</tspan></text>
</svg>