<?xml version="1.0" encoding="UTF-8"?>
<svg id="Capa_1" data-name="Capa 1" xmlns="http://www.w3.org/2000/svg" xmlns:xlink="http://www.w3.org/1999/xlink" viewBox="0 0 600 400">
  <defs>
    <style>
      .cls-1 {
        fill: none;
      }

      .cls-2 {
        clip-path: url(#clippath-1);
      }

      .cls-3 {
        clip-path: url(#clippath);
      }
    </style>
    <clipPath id="clippath">
      <rect class="cls-1" x="705.38" y="158.5" width="509.23" height="100.35"/>
    </clipPath>
    <clipPath id="clippath-1">
      <rect class="cls-1" x="1338.55" y="67.73" width="562.89" height="264.53" transform="translate(3240 400) rotate(-180)"/>
    </clipPath>
  </defs>
  <g>
    <path d="M22.18,36.19c.18.06.63.13.94.25l52.77,20.15c92.3,35.23,183.36,73.04,275.18,109.55l44.39,17.65,14.67,5.35c1.67.61,3.29.92,5.06,1.2,2.16.34,2.39-2.61,6.08-3.22,2.85-.47,5.79-.76,8.6-.27,1.82.31,5.82,1.53,6.19,3.45.73,3.72-13.8,8.46-8.67,13.48,7.44,7.29,11.16,16.06,14.62,25.76l5.25,14.74c3.4,2.35,7.02,3.61,11.09,4.16,5.92.8,11.76.65,17.75.38,4.34-.2,8.33,1.27,11.64,4.02l12.15,10.06c17.52,14.51,35.89,27.71,54.62,40.66l19.47,13.47c3.42,2.37,6.55,4.73,9.74,7.33l2,1.63.45,1.41c.14,5.28-6.12,14.22-9.49,18.56-7.24,9.34-14.97,18.17-23.63,26.22-2.8,2.61-5.92,4.58-8.9,6.93-2.62,2.07-5.34,3.77-7.99,5.53l-2.62.83c-1.02-.34-1.94-.78-2.84-1.67-10.91-10.8-21.56-21.85-31.94-33.26-12.63-13.89-24.16-28.49-35.75-43.2l-8.54-10.84c-1.7-2.15-3.58-4-5.61-5.82-6.64-5.97-13.47-7.25-21.84-8.9-4.75-.94-7.19-3.59-7.14-8.62l.07-7.64c.07-7.09-2.06-13.82-6.59-19.29l-4.06-4.89c-1.17-1.42-2.94-1.28-4.16-.12-1.15,1.1-2.12,2.5-3.43,3.46-3.66,2.67-7.98,4.28-12.47,4.82-12.38,1.51-22.56-7.11-24.73-19.12-.54-2.98.7-7.84-1.19-8.52l-49.9-18.14c-4.24-1.54-8.28-2.87-12.3-4.76-1.68-.79-5.6-2.68-4.32-4.8,1.59-2.64-4.33-4.05-6.46-4.9l-100.13-39.8L41.05,89.3l-11.12-4.62c-1.7-.71-2.34-2.07-1.76-3.75l2.86-8.37,1.46-3.85c.55-1.46-.19-2.43-1.45-2.95l-12.6-5.25c-1.6-.67-2.87-1.63-4.06-2.71l-.53-1.69c.42-1.55.92-3.06,1.64-4.63,2.09-4.54,3.67-9.12,4.92-13.96l.58-.95,1.21-.38ZM308.28,171.05l-.04-.74c-.02-.46.3-1,.54-1.5l4.47-9.36c.32-.67.69-1.98-.04-2.49l-44.88-17.85-59.88-23.87-79.78-31.6L24.7,41.52c-2.37,4.61-3.8,9.39-4.51,14.52,5.21,2.4,10.24,4.35,15.47,6.27l13.65,5.33,61.51,24.68,112.1,45.2,56.06,22.71,22.46,8.93c.48.19,6.88,2.63,6.85,1.88ZM292.58,185.88c1.67.64,8.65,3.01,9.38,1.07.96-2.6-.42-5.59,3.16-9.58l-70.96-28.81-76.72-31.23-108.83-44.46c-4.48-1.83-8.89-3.55-13.45-5.14-.04.77-.04,1.18-.17,1.58l-2.6,7.95c-.57,1.73-.88,3.35-1.03,5.27,2.83,1.34,5.47,2.4,8.35,3.46l9.36,3.47c54.21,20.12,107.6,41.97,161.27,63.64l61.94,25.01,20.31,7.77ZM399.71,229.49l12.72-30.57c.64-1.95-7.65-5.59-9.22-6.27-6.6-2.87-13.21-5.29-19.96-7.76-3.03-1.11-5.85-2.07-8.79-3.46l-29.34-11.84-27.42-10.8-11.39,27.5c-1.02,2.45-1.9,4.67-2.71,7.17-.05.98-.24,2.3.65,2.93,1.06.75,2.43,1.15,3.69,1.45,3.46.82,6.52,1.98,9.89,3.22l40.8,15.1,38.88,13.85c.68.24,1.91.15,2.19-.52ZM431.63,190.85c.12-.1.46-.52.35-.55s-.53-.23-.71-.21l-8.46,1.08c-2.02.26-4.18.71-5.43,2.25-.58.89.66,1.95,1.31,2.45l4.67,3.59c2.38-3.91,4.88-5.82,8.26-8.61ZM580.81,332.1c.66-1.2,1.07-2.47,1.2-3.98l-37.1-25.08-32.99-23.99-19.07-14.58c-3.43-2.62-10.42-9.39-14.61-9.98-3.45-.48-6.81-.39-10.27-.57-6.02-.31-12.43-.69-17.91-3.31-4.54-2.17-7.85-6.19-8.78-11.28-1.29-7.07-3.55-13.58-7.39-19.74-4.48-7.19-10.19-13.22-16.89-18.37-.33-.25-.86-.57-1.14-.47-.86.3-1.29,3.12-2.24,5.29l-5.75,13.13c-1.82,4.15-3.53,8.18-4.94,12.53,11.4,6.47,18.82,15.56,20.91,28.55.78,4.83.73,9.44.21,14.36,2.69,1.08,5.4,1.81,8.21,2.43,4.03.89,14.29,2.67,17.12,5.88l30.91,35.13c16.2,18.41,31.64,37.29,46.98,56.33,1.5,1.86,2.91,3.42,4.56,4.98.71.68,1.79.69,2.44.02,1.33-1.38,2.93-1.99,4.54-2.93,14.17-8.27,34.08-29.99,42.01-44.39ZM402.12,236.72c-.62-.78-2.4-1.65-2.93-1.03-2.34,2.72-5.05,4.61-8.46,5.57-4.9,1.37-10.04.13-13.62-2.71-4.28-3.39-6.07-8.32-5.83-13.56-.44-.69-1.63-1.37-2.5-1.17-.54.12-.94,1.27-.91,1.87.48,10.16,5.64,19.6,16.76,19.87,5.17.13,10.21-1.29,14.55-4.17,1.27-.84,4.03-3.31,2.95-4.67ZM389.01,235.77c-2.11,1.87-4.9,1.55-7.22.39-1.72-.86-2.81-2.3-2.75-4.3l.08-2.76c.03-1.2-.79-2.11-1.86-2.44l-2.34-.72c-4.71-1.45.68,11.62,10.98,12.75,5.02.55,12.89-2.63,10.46-5.07-.72-.73-2.77-1.89-3.71-1.06l-3.64,3.22ZM390.08,231.48c-1.59-1.12-7.7-3.6-8.68-2.24-.4.55.89,4.92,4.56,4.71,1.64-.09,3.17-.96,4.12-2.47Z"/>
    <path d="M449.31,263.19c-2.3-.7-7.38-1.76-8.63.3s2.88,6.27,4.5,7.86c4.53,4.46,9.79,8.05,15.35,11.11.73.4,1.52.54,2.35.38-1.76-3.53-5.11-6.84-9.25-7.5.19-.56.6-1.34,1.04-1.61,2.49-1.49,6.65,2.43,8.31,4.99,1,1.53,3.18,4.78,2.55,6.45-.64,1.71-5.22-.08-6.58-.75-6.53-3.21-12.52-7.3-17.71-12.41-3.15-3.1-3.77-5.02-2.31-9.11,1.79-4.99,8.03-4.15,12.03-2.78,10.09,3.45,21.33,11.8,29.05,19.08,1.7,1.61,2.95,3.24,4.35,5.09,5.5,7.25,10.6,14.55,15.64,22.2l13.81,20.97c5.31,8.06,11.36,15.23,17.87,22.33,3.01,3.29,5.8,6.44,8.58,9.86.65.8,1.31,1.76,1.09,2.89-13.01-10.95-24.24-25.4-33.61-39.34l-13.34-19.85c-3.73-5.55-7.52-10.74-11.76-15.89-9.02-10.95-19.43-20.06-33.32-24.26Z"/>
    <path d="M528.16,327.95c2.17-1.86,6.99,2.61,7.47,5.31-1.17.83-3.58-2.41-5.14-1.73.93,2.54,11.39,14.52,13.67,12.72,1.12-.88-.09-4.79-.6-6.13-7.66-20.14-21.77-37.65-38.42-51.23-21.04-17.16-45.87-29.29-72.25-35.43-1.09-.25-4.27-.06-4.26-1.52,0-.27.48-.58.84-.56,6.38.34,12.44,1.43,18.57,3.18,6.46,1.84,12.6,4,18.56,7.11l14.63,7.62c21.49,11.19,40.16,27.15,53.46,47.47,4.41,6.73,12.95,21.99,11.26,29.7-.33,1.53-1.77,2.38-3.27,1.87s-3.02-1.39-4.3-2.49c-3-2.59-5.68-5.41-8.08-8.56-1.16-1.52-3.89-5.85-2.15-7.34Z"/>
    <path d="M430.43,230.81c.24-1.28-.25-2.05-.83-2.96-2.48-3.84-5.41-7.22-8.77-10.36-.8-.75-2.84-2.41-3.81-2.11-.22.07-.46.72-.38.93l3.82,9.64c2.17,5.47,4.12,10.82,4.94,16.81-1.29-.71-1.73-1.84-2.29-2.98-3.24-6.58-5.94-13.27-8.01-20.34-.49-1.69-1.16-3.67-.75-5.32.42-1.66,2.76-2.05,4.14-1.57,1.51.53,2.76,1.21,3.99,2.2,4.29,3.45,9.29,9.47,10.49,14.94.23,1.07-.18,2.15-.75,3.01-.6.9-1.62,1.47-2.72.99-1.56-.68-3-2.09-3.21-3.97-.16-1.41,3.13,1.15,4.14,1.09Z"/>
    <path d="M560.79,342.25c-.76,1.93-4.44,9.12-7.14,8.38,3.52-6.32,9.35-15.04,3.1-21.6l-17.58-18.45c-1.44-1.51-2.53-2.92-3.65-4.92,1.11.08,1.88.61,2.73,1.27,6.98,5.43,13.48,11.27,19.59,17.72,1.28,1.35,2.83,2.79,3.52,4.49,1.73,4.28,1.07,8.96-.57,13.12Z"/>
    <path d="M366.49,203.87c-6.9-.45-13.55-3.61-19.73-6.37-2.91-1.31-5.78-2.29-8.76-3.47l-8.69-3.45c-2.58-1.03-6.51-2.46-6.15-5.55.34-1.37.69-2.71,1.24-4l3.68-8.62c7.89.89,15.44,4.45,22.62,7.71,3.84,1.75,7.61,3.14,11.53,4.63l7.29,2.76c1.1.42,2.02,1.13,2.8,2.08-.61,3.32-3.05,12.08-5.81,14.27ZM355.25,197.62c1.11.46,2.03.68,3.17.94.69-.41,1.16-.98,1.36-1.73l2.2-8.17c-10.96-5.24-21.35-8.25-32.38-13.15-1.04,2.7-3.62,7.26-3.25,9.87,2.12,1.31,4.14,2.29,6.43,3.17l8.28,3.18,14.2,5.89ZM365.37,200.71l3.37-9.7-2.78-1.17c-.37-.16-1.43-.06-1.55.28l-2.23,7.9c-.19.69-.13,1.97.41,2.34.82.55,1.83.47,2.77.35Z"/>
    <path d="M397.01,223.23c.89-1.28.43-2.36,1.3-2.97s1.45,2.27.27,4.39c-3.23,5.81-17.33-5.95-3.98-1.1.73.27,1.91.4,2.42-.32Z"/>
    <path d="M322.88,167.61l-2.73,4.05c-.13.2-.87.47-1.01.33-1.05-1.01.3-5.75,1.61-6.91,1.92.28,5.71.55,7,1.46.12.09-.45.5-.61.53l-4.24.54Z"/>
  </g>
  <g class="cls-3">
    <g>
      <path d="M1207.94,174.69l.23,1.24c-.66,5.63-.85,11.13-.5,16.79.12,1.95.03,3.76-.16,5.57l-1.26,1.57c-1.7.65-3.44,1.15-5.41,1.2l-15.5.41c-1.55.04-2.74.76-2.74,2.53l-.02,4.67-.39,10.04c-.08,2.02-1.31,3.2-3.4,3.25l-13.67.35-182.57,2.73-122.31,1.21c-2.6.03-9.45-.9-8.84,2.55.49,2.77-4.44,3.17-6.54,3.32-5.04.36-9.86.11-14.98.01l-60.27-1.19c-2.27-.05-2.95,5.6-4.74,8.54-7.21,11.83-21.51,16.8-34.01,10.14-4.53-2.41-8.45-5.89-11.23-10.21-.99-1.54-1.45-3.43-2.22-5.06-.82-1.73-2.64-2.59-4.46-1.57l-6.3,3.52c-7.03,3.93-12.04,10.19-14.87,17.73l-3.04,8.12c-2,5.34-5.67,7.16-11.09,6.21-9.54-1.67-17.3-3.11-26.77.5-2.9,1.11-5.65,2.29-8.32,3.88l-13.48,7.99c-18.28,10.84-36.47,21.59-55.52,31.14-15.66,7.84-31.45,15.19-47.42,22.17-1.32.57-2.47.67-3.69.61l-2.44-1.95c-2.09-2.95-4.28-5.87-6.21-9.13-2.19-3.72-4.69-7.08-6.59-10.98-5.88-12.06-10.46-24.58-14.31-37.43-1.79-5.98-4.77-18-2.46-23.54l1.05-1.31,2.79-.91c4.44-1.45,8.72-2.67,13.31-3.78l26.13-6.3c25.14-6.06,49.99-12.53,74.48-20.73l16.98-5.69c4.63-1.55,9.45-1.48,13.97.51,6.23,2.74,12.35,5.28,18.95,6.86,4.54,1.08,8.89,1.22,13.45.13l11.59-13.46c7.63-8.87,15.15-16.63,26.02-21.31,7.48-3.22-5.97-14.18-3.67-17.83,1.18-1.88,5.91-1.54,7.97-1.13,3.17.63,6.17,2.14,8.99,3.8,3.65,2.15,2.7,5.37,5.12,5.9,1.99.43,3.83.77,5.85.8l17.72.33,54.23-.54c112.17-1.13,224.07-3.94,336.23-3.52l64.13.24c.38,0,.89.1,1.1.12l1.12.9ZM856.69,200.45l27.44-.27,68.66-1.14,137.2-2.04,75.23-.99,16.64-.07c6.32.1,12.45.09,18.94-.32,1.34-5.72,1.78-11.37,1.16-17.22l-127.33,2.09-97.42.85-73.18.8-54.83.56c-.98.25-1.12,1.78-1.06,2.63l.91,11.74c.05.63.17,1.33-.04,1.81l-.34.77c-.34.77,7.43.81,8.02.8ZM883.91,221.84l75.83-1.16c65.7-1.01,131.18-2.32,196.81-1.46l11.34.15c3.48.05,6.71.01,10.26-.26.63-2.09.96-3.94,1.07-6l.5-9.48c.03-.48.19-.91.46-1.75-5.48-.18-10.85-.17-16.35-.06l-133.44,2.59-94.03,1.71-86.93,1.5c2.16,5.68-.53,8.29-.57,11.44-.03,2.35,8.34,2.7,10.37,2.7l24.68.07ZM730.06,225.6l46.84,1.23,49.38.69c4.08.06,7.79.08,11.79.63,1.46.2,3.07.34,4.5-.03,1.2-.31,1.53-1.78,1.88-2.84.17-2.97.14-5.68.06-8.7l-.82-33.78-33.45.23-35.92.55c-3.68.27-7.05.14-10.72.07-8.17-.14-16.15-.29-24.31.06-1.94.08-12.21.55-12.33,2.88l.98,37.58c.02.82,1.29,1.42,2.11,1.44ZM715.16,182.68l6.41-1.9c.89-.26,2.64-.88,2.39-2.06-.69-2.13-2.79-3.49-4.83-4.6l-8.52-4.61c-.18-.1-.7-.06-.83-.07s.05.57.14.73c2.44,4.34,4.3,7.39,5.23,12.5ZM520.54,322.97c1.32,1.65,2.76,2.95,3.61,4.95.41.97,1.56,1.4,2.59.97,2.38-.98,4.51-2.05,6.86-3.41,24.03-13.9,48.11-27.58,72.79-40.45l47.1-24.57c4.31-2.25,15.9.07,20.54.77,3.23.49,6.4.82,9.69.78,1.46-5.43,3.29-10.33,6.09-15.13,7.52-12.9,19.1-19.5,33.82-21.69.28-5.19.12-10.15-.11-15.29l-.72-16.26c-.12-2.69.58-5.85-.21-6.52-.25-.22-.95-.1-1.4.03-9.21,2.72-17.72,6.77-25.4,12.55-6.58,4.95-11.64,10.92-15.9,17.88-3.06,5.01-8.21,7.91-13.9,8.35-6.88.53-13.81-1.69-20.32-3.82-3.74-1.22-7.25-2.7-11.11-3.6-4.68-1.09-14.84,3.22-19.55,4.6l-26.16,7.64-44.74,11.92-49.54,11.4c-.49,1.65-.57,3.16-.36,4.7,2.52,18.49,14.72,49.64,26.35,64.18ZM723.65,236.98c3.42,4.82,8.18,8.38,13.71,10.36,11.88,4.26,21.22-3.63,25.88-14.2.28-.63.32-2-.2-2.36-.84-.57-2.38-.34-3.13.22-1.89,5.65-5.8,10.14-11.72,11.98-4.96,1.54-10.91.75-15.54-2.7-3.22-2.41-5.32-5.52-6.68-9.35-.31-.88-2.55-.69-3.53-.11-1.7,1,.21,4.74,1.21,6.16ZM734.17,230.29c-.66-1.27-3.3-.87-4.37-.4-3.57,1.59,3.46,8.17,9.01,9.64,11.37,3.02,22.42-8.63,16.84-9.01l-2.78-.19c-1.27-.09-2.51.55-2.97,1.83l-1.05,2.95c-.76,2.15-2.5,3.22-4.67,3.43-2.93.28-6.01-.52-7.48-3.36l-2.54-4.9ZM740.68,234.5c3.8,1.72,6.95-2.38,6.76-3.12-.48-1.84-7.97-1.71-10.11-1.17.39,1.98,1.65,3.52,3.35,4.3Z"/>
      <path d="M661.64,239.57c2.72.2,8.54,1.15,9.02,3.85s-5.61,5.46-7.98,6.49c-6.63,2.87-13.66,4.53-20.8,5.49-.93.12-1.84-.05-2.64-.55,3.31-3.02,8.21-5.15,12.87-4.16.02-.68-.09-1.67-.45-2.13-2.02-2.6-8.03-.15-10.84,1.88-1.68,1.21-5.32,3.76-5.34,5.79s5.56,2.05,7.28,1.9c8.23-.72,16.24-2.62,23.83-5.91,4.61-2,6.05-3.78,6.17-8.71.14-6.01-6.81-7.68-11.61-7.87-12.1-.47-27.42,3.77-38.56,8.33-2.46,1.01-4.44,2.23-6.69,3.61-8.79,5.43-17.17,11.07-25.64,17.12l-23.19,16.56c-8.92,6.37-18.25,11.48-28.05,16.35-4.54,2.25-8.77,4.45-13.12,6.93-1.02.58-2.1,1.33-2.34,2.62,18.26-6.28,36.06-16.99,51.68-27.93l22.24-15.57c6.22-4.35,12.35-8.3,18.95-12.02,14.03-7.9,28.79-13.3,45.21-12.07Z"/>
      <path d="M551.65,275.92c-1.54-2.86-8.47-.09-10.09,2.57.9,1.36,4.78-1.09,6.15.27-2.02,2.31-18,10.72-19.68,7.88-.83-1.39,2.05-5.03,3.15-6.25,16.34-18.2,38.45-30.97,61.63-38.55,29.3-9.57,60.55-12.27,91-7.98,1.26.18,4.55,1.69,5.13.13.11-.28-.27-.81-.66-.93-6.89-2.25-13.76-3.57-20.97-4.23-7.6-.69-14.98-.91-22.56-.06l-18.61,2.09c-27.33,3.07-53.63,12.33-76.03,28.42-7.42,5.33-22.7,17.99-24.07,26.85-.27,1.76.9,3.24,2.7,3.32s3.77-.24,5.57-.88c4.23-1.52,8.22-3.41,12.06-5.76,1.85-1.13,6.51-4.6,5.28-6.89Z"/>
      <path d="M511.24,277.73c.02,2.35.98,11.48,4.13,11.8-1.14-8.13-3.75-19.75,5.55-24.15l26.16-12.35c2.14-1.01,3.87-2.06,5.88-3.72-1.2-.37-2.23-.13-3.41.23-9.61,2.9-18.89,6.43-27.99,10.76-1.91.91-4.14,1.8-5.56,3.31-3.58,3.83-4.8,9.05-4.76,14.13Z"/>
    </g>
  </g>
  <g class="cls-2">
    <path d="M520.93,108.03c.57-.03,1.91-.3,2.91-.31l169.06-.63c295.67-1.1,590.67,6.31,886.36,9.28l142.95,1.44,46.71-.87c5.32-.1,10.17-.99,15.42-2.12,6.39-1.37,3.86-9.87,13.49-15.54,7.44-4.38,15.35-8.35,23.71-10.02,5.42-1.08,17.89-1.98,21,2.97,6.05,9.61-29.41,38.5-9.68,46.99,28.64,12.32,48.46,32.8,68.58,56.17l30.55,35.48c12.02,2.88,23.49,2.52,35.46-.34,17.4-4.15,33.55-10.85,49.96-18.08,11.91-5.24,24.63-5.43,36.83-1.34l44.76,15c64.56,21.64,130.07,38.67,196.33,54.66l68.88,16.62c12.1,2.92,23.38,6.15,35.09,9.96l7.35,2.39,2.77,3.46c6.09,14.6-1.76,46.3-6.48,62.05-10.16,33.88-22.22,66.86-37.73,98.66-5.02,10.3-11.6,19.16-17.38,28.95-5.08,8.6-10.84,16.27-16.36,24.06l-6.43,5.14c-3.22.15-6.27-.1-9.73-1.61-42.1-18.4-83.73-37.76-125.01-58.44-50.23-25.16-98.17-53.51-146.36-82.08l-35.53-21.07c-7.05-4.18-14.3-7.3-21.94-10.22-24.98-9.52-45.43-5.74-70.57-1.32-14.27,2.51-23.94-2.27-29.23-16.36l-8.03-21.4c-7.45-19.87-20.64-36.37-39.19-46.75l-16.6-9.28c-4.81-2.69-9.59-.41-11.75,4.15-2.04,4.3-3.24,9.28-5.86,13.35-7.34,11.39-17.68,20.55-29.61,26.91-32.94,17.55-70.65,4.46-89.65-26.73-4.72-7.75-6.5-22.63-12.49-22.51l-158.87,3.15c-13.48.27-26.2.92-39.48-.03-5.53-.39-18.53-1.46-17.24-8.75,1.61-9.08-16.45-6.64-23.31-6.71l-322.44-3.2-481.29-7.19-36.03-.92c-5.51-.14-8.75-3.26-8.96-8.58l-1.03-26.45-.06-12.32c-.02-4.67-3.15-6.57-7.24-6.68l-40.85-1.09c-5.18-.14-9.78-1.47-14.26-3.17l-3.31-4.15c-.48-4.77-.73-9.54-.41-14.68.94-14.93.43-29.43-1.31-44.27l.6-3.27,2.97-2.37ZM1465.07,176.19l-.9-2.04c-.55-1.25-.24-3.11-.11-4.77l2.39-30.94c.17-2.22-.2-6.26-2.79-6.93l-144.53-1.47-192.93-2.1-256.8-2.25-335.67-5.51c-1.65,15.42-.47,30.32,3.06,45.4,17.13,1.08,33.28,1.11,49.94.84l43.85.18,198.33,2.62,361.69,5.38,180.99,3,72.34.71c1.55.02,22.05-.08,21.14-2.12ZM1437.23,234.52c5.34-.02,27.41-.92,27.33-7.12-.11-8.3-7.19-15.17-1.5-30.15l-229.16-3.95-247.87-4.51-351.77-6.83c-14.49-.28-28.64-.33-43.1.15.71,2.21,1.15,3.33,1.22,4.61l1.31,24.99c.28,5.43,1.15,10.29,2.81,15.81,9.34.7,17.86.79,27.04.67l29.89-.39c173.03-2.27,345.64,1.21,518.84,3.86l199.9,3.06,65.07-.19ZM1783.32,240.82l2.58-99.06c-.32-6.14-27.39-7.36-32.5-7.58-21.51-.91-42.57-.53-64.09-.15-9.66.17-18.56.53-28.26-.19l-94.69-1.44-88.19-.6-2.16,89.06c-.19,7.95-.28,15.1.16,22.93.93,2.79,1.8,6.67,4.96,7.48,3.77.96,8.01.6,11.86.07,10.55-1.45,20.34-1.51,31.09-1.66l130.18-1.82,123.49-3.23c2.16-.06,5.51-1.63,5.56-3.81ZM1830.8,98.52c.23-.41.72-1.94.37-1.92s-1.72-.07-2.19.19l-22.45,12.15c-5.37,2.91-10.91,6.49-12.73,12.12-.65,3.12,3.95,4.73,6.3,5.42l16.91,5.01c2.44-13.48,7.35-21.51,13.79-32.96ZM2399.54,332.1c.56-4.08.34-8.06-.95-12.4l-130.61-30.05-117.95-31.42-68.97-20.14c-12.42-3.63-39.2-15-51.55-12.12-10.16,2.37-19.42,6.26-29.28,9.48-17.15,5.61-35.44,11.47-53.57,10.06-15-1.16-28.57-8.82-36.65-22.02-11.23-18.35-24.56-34.08-41.91-47.14-20.26-15.25-42.7-25.93-66.97-33.09-1.18-.35-3.01-.66-3.68-.09-2.07,1.77-.23,10.1-.55,17.19l-1.91,42.87c-.6,13.55-1.03,26.63-.3,40.32,38.79,5.77,69.31,23.18,89.14,57.17,7.38,12.64,12.22,25.56,16.06,39.88,8.69.12,17.02-.76,25.55-2.05,12.22-1.85,42.78-7.96,54.13-2.03l124.17,64.77c65.07,33.94,128.53,70,191.89,106.64,6.2,3.58,11.82,6.4,18.09,8.99,2.73,1.13,5.75,0,6.83-2.57,2.23-5.28,6.03-8.71,9.51-13.06,30.66-38.35,62.82-120.45,69.45-169.2ZM1797.83,258.4c-2.57-1.52-8.48-2.02-9.3.3-3.6,10.11-9.13,18.31-17.61,24.65-12.2,9.11-27.88,11.19-40.96,7.12-15.61-4.86-25.92-16.69-30.9-31.59-1.97-1.46-6.03-2.08-8.25-.57-1.38.93-1.26,4.56-.53,6.21,12.28,27.86,36.89,48.65,68.21,37.42,14.58-5.22,27.12-14.61,36.14-27.32,2.64-3.72,7.67-13.59,3.2-16.23ZM1760.24,269.89c-3.87,7.49-12,9.6-19.73,8.86-5.73-.55-10.31-3.39-12.32-9.05l-2.76-7.79c-1.2-3.38-4.48-5.05-7.83-4.82l-7.32.5c-14.7,1.01,14.42,31.72,44.4,23.76,14.61-3.88,33.14-21.24,23.74-25.43-2.81-1.25-9.78-2.3-11.51,1.04l-6.68,12.92ZM1758.6,256.75c-5.64-1.42-25.38-1.76-26.65,3.09-.52,1.97,7.79,12.78,17.81,8.24,4.49-2.04,7.81-6.1,8.84-11.32Z"/>
  </g>
</svg>