<?xml version="1.0" encoding="UTF-8"?>
<svg id="Capa_1" data-name="Capa 1" xmlns="http://www.w3.org/2000/svg" viewBox="0 0 600 400">
  <path d="M579.03,36.58l.58.95c1.24,4.83,2.83,9.42,4.92,13.96.72,1.56,1.22,3.08,1.64,4.63l-.53,1.69c-1.19,1.07-2.47,2.04-4.06,2.71l-12.6,5.25c-1.26.53-2.01,1.49-1.45,2.95l1.46,3.85,2.86,8.37c.58,1.68-.06,3.05-1.76,3.75l-11.12,4.62-149.16,60.16-100.13,39.8c-2.13.85-8.05,2.26-6.46,4.9,1.28,2.12-2.64,4.01-4.32,4.8-4.03,1.89-8.07,3.22-12.3,4.76l-49.9,18.14c-1.88.68-.65,5.54-1.19,8.52-2.17,12.01-12.35,20.63-24.73,19.12-4.49-.55-8.81-2.16-12.47-4.82-1.31-.95-2.28-2.36-3.43-3.46-1.22-1.16-2.99-1.29-4.16.12l-4.06,4.89c-4.53,5.46-6.66,12.2-6.59,19.29l.07,7.64c.05,5.03-2.39,7.68-7.14,8.62-8.37,1.65-15.2,2.93-21.84,8.9-2.03,1.83-3.91,3.67-5.61,5.82l-8.54,10.84c-11.58,14.71-23.12,29.31-35.75,43.2-10.38,11.41-21.03,22.46-31.94,33.26-.9.89-1.82,1.33-2.84,1.67l-2.62-.83c-2.66-1.76-5.38-3.46-7.99-5.53-2.98-2.36-6.1-4.33-8.9-6.93-8.66-8.05-16.39-16.88-23.63-26.22-3.37-4.34-9.63-13.28-9.49-18.56l.45-1.41,2-1.63c3.19-2.6,6.32-4.96,9.74-7.33l19.47-13.47c18.73-12.96,37.1-26.15,54.62-40.66l12.15-10.06c3.31-2.74,7.3-4.22,11.64-4.02,5.99.28,11.83.42,17.75-.38,4.07-.55,7.69-1.82,11.09-4.16l5.25-14.74c3.46-9.71,7.18-18.48,14.62-25.76,5.13-5.02-9.4-9.76-8.67-13.48.38-1.92,4.37-3.14,6.19-3.45,2.81-.49,5.75-.2,8.6.27,3.68.61,3.92,3.56,6.08,3.22,1.78-.28,3.39-.59,5.06-1.2l14.67-5.35,44.39-17.65c91.82-36.51,182.88-74.32,275.18-109.55l52.77-20.15c.31-.12.76-.2.94-.25l1.21.38ZM298.57,169.16l22.46-8.93,56.06-22.71,112.1-45.2,61.51-24.68,13.65-5.33c5.23-1.92,10.26-3.87,15.47-6.27-.71-5.13-2.14-9.91-4.51-14.52l-103.97,42.11-79.78,31.6-59.88,23.87-44.88,17.85c-.73.52-.36,1.82-.04,2.49l4.47,9.36c.24.5.56,1.04.54,1.5l-.04.74c-.04.74,6.36-1.69,6.85-1.88ZM327.72,178.11l61.94-25.01c53.67-21.67,107.05-43.52,161.27-63.64l9.36-3.47c2.88-1.07,5.52-2.12,8.35-3.46-.15-1.92-.46-3.54-1.03-5.27l-2.6-7.95c-.13-.41-.13-.81-.17-1.58-4.57,1.59-8.97,3.31-13.45,5.14l-108.83,44.46-76.72,31.23-70.96,28.81c3.58,3.98,2.2,6.98,3.16,9.58.72,1.94,7.71-.43,9.38-1.07l20.31-7.77ZM202.49,230.01l38.88-13.85,40.8-15.1c3.37-1.25,6.43-2.41,9.89-3.22,1.27-.3,2.63-.7,3.69-1.45.89-.63.69-1.95.65-2.93-.8-2.49-1.69-4.71-2.71-7.17l-11.39-27.5-27.42,10.8-29.34,11.84c-2.94,1.39-5.75,2.35-8.79,3.46-6.76,2.47-13.36,4.89-19.96,7.76-1.57.68-9.86,4.32-9.22,6.27l12.72,30.57c.28.67,1.51.76,2.19.52ZM176.63,199.46l4.67-3.59c.65-.5,1.89-1.56,1.31-2.45-1.24-1.54-3.4-1.99-5.43-2.25l-8.46-1.08c-.18-.02-.6.17-.71.21s.23.45.35.55c3.39,2.79,5.88,4.7,8.26,8.61ZM61.2,376.48c1.61.94,3.21,1.55,4.54,2.93.65.67,1.72.66,2.44-.02,1.64-1.56,3.06-3.12,4.56-4.98,15.34-19.05,30.78-37.92,46.98-56.33l30.91-35.13c2.83-3.21,13.09-4.99,17.12-5.88,2.81-.62,5.52-1.35,8.21-2.43-.52-4.93-.57-9.54.21-14.36,2.09-12.98,9.51-22.08,20.91-28.55-1.42-4.35-3.13-8.38-4.94-12.53l-5.75-13.13c-.95-2.17-1.38-4.99-2.24-5.29-.28-.1-.81.22-1.14.47-6.7,5.15-12.41,11.18-16.89,18.37-3.84,6.16-6.1,12.67-7.39,19.74-.93,5.09-4.24,9.11-8.78,11.28-5.48,2.62-11.89,2.99-17.91,3.31-3.46.18-6.82.08-10.27.57-4.2.59-11.18,7.36-14.61,9.98l-19.07,14.58-32.99,23.99-37.1,25.08c.12,1.51.53,2.77,1.2,3.98,7.93,14.4,27.84,36.12,42.01,44.39ZM200.83,241.39c4.34,2.88,9.38,4.29,14.55,4.17,11.12-.27,16.28-9.71,16.76-19.87.03-.6-.37-1.75-.91-1.87-.88-.2-2.07.48-2.5,1.17.24,5.24-1.55,10.17-5.83,13.56-3.59,2.84-8.73,4.08-13.62,2.71-3.41-.96-6.12-2.85-8.46-5.57-.53-.62-2.32.25-2.93,1.03-1.08,1.36,1.68,3.83,2.95,4.67ZM207.35,232.55c-.94-.83-2.99.33-3.71,1.06-2.43,2.44,5.44,5.62,10.46,5.07,10.3-1.13,15.69-14.2,10.98-12.75l-2.34.72c-1.07.33-1.89,1.25-1.86,2.44l.08,2.76c.06,2.01-1.03,3.44-2.75,4.3-2.32,1.16-5.11,1.48-7.22-.39l-3.64-3.22ZM214.04,233.95c3.67.21,4.96-4.16,4.56-4.71-.98-1.36-7.09,1.12-8.68,2.24.95,1.5,2.47,2.37,4.12,2.47Z"/>
  <path d="M150.69,263.19c2.3-.7,7.38-1.76,8.63.3,1.28,2.12-2.88,6.27-4.5,7.86-4.53,4.46-9.79,8.05-15.35,11.11-.73.4-1.52.54-2.35.38,1.76-3.53,5.11-6.84,9.25-7.5-.19-.56-.6-1.34-1.04-1.61-2.49-1.49-6.65,2.43-8.31,4.99-1,1.53-3.18,4.78-2.55,6.45.64,1.71,5.22-.08,6.58-.75,6.53-3.21,12.52-7.3,17.71-12.41,3.15-3.1,3.77-5.02,2.31-9.11-1.79-4.99-8.03-4.15-12.03-2.78-10.09,3.45-21.33,11.8-29.05,19.08-1.7,1.61-2.95,3.24-4.35,5.09-5.5,7.25-10.6,14.55-15.64,22.2l-13.81,20.97c-5.31,8.06-11.36,15.23-17.87,22.33-3.01,3.29-5.8,6.44-8.58,9.86-.65.8-1.31,1.76-1.09,2.89,13.01-10.95,24.24-25.4,33.61-39.34l13.34-19.85c3.73-5.55,7.52-10.74,11.76-15.89,9.02-10.95,19.43-20.06,33.32-24.26Z"/>
  <path d="M71.84,327.95c-2.17-1.86-6.99,2.61-7.47,5.31,1.17.83,3.58-2.41,5.14-1.73-.93,2.54-11.39,14.52-13.67,12.72-1.12-.88.09-4.79.6-6.13,7.66-20.14,21.77-37.65,38.42-51.23,21.04-17.16,45.87-29.29,72.25-35.43,1.09-.25,4.27-.06,4.26-1.52,0-.27-.48-.58-.84-.56-6.38.34-12.44,1.43-18.57,3.18-6.46,1.84-12.6,4-18.56,7.11l-14.63,7.62c-21.49,11.19-40.16,27.15-53.46,47.47-4.41,6.73-12.95,21.99-11.26,29.7.33,1.53,1.77,2.38,3.27,1.87s3.02-1.39,4.3-2.49c3-2.59,5.68-5.41,8.08-8.56,1.16-1.52,3.89-5.85,2.15-7.34Z"/>
  <path d="M169.57,230.81c-.24-1.28.25-2.05.83-2.96,2.48-3.84,5.41-7.22,8.77-10.36.8-.75,2.84-2.41,3.81-2.11.22.07.46.72.38.93l-3.82,9.64c-2.17,5.47-4.12,10.82-4.94,16.81,1.29-.71,1.73-1.84,2.29-2.98,3.24-6.58,5.94-13.27,8.01-20.34.49-1.69,1.16-3.67.75-5.32-.42-1.66-2.76-2.05-4.14-1.57-1.51.53-2.76,1.21-3.99,2.2-4.29,3.45-9.29,9.47-10.49,14.94-.23,1.07.18,2.15.75,3.01s1.62,1.47,2.72.99c1.56-.68,3-2.09,3.21-3.97.16-1.41-3.13,1.15-4.14,1.09Z"/>
  <path d="M39.21,342.25c.76,1.93,4.44,9.12,7.14,8.38-3.52-6.32-9.35-15.04-3.1-21.6l17.58-18.45c1.44-1.51,2.53-2.92,3.65-4.92-1.11.08-1.88.61-2.73,1.27-6.98,5.43-13.48,11.27-19.59,17.72-1.28,1.35-2.83,2.79-3.52,4.49-1.73,4.28-1.07,8.96.57,13.12Z"/>
  <path d="M227.69,189.6c.78-.95,1.7-1.67,2.8-2.08l7.29-2.76c3.92-1.49,7.69-2.88,11.53-4.63,7.18-3.27,14.72-6.83,22.62-7.71l3.68,8.62c.55,1.28.89,2.63,1.24,4,.36,3.09-3.57,4.52-6.15,5.55l-8.69,3.45c-2.97,1.18-5.84,2.16-8.76,3.47-6.17,2.77-12.83,5.92-19.73,6.37-2.76-2.18-5.2-10.94-5.81-14.27ZM258.95,191.73l8.28-3.18c2.29-.88,4.31-1.86,6.43-3.17.37-2.61-2.21-7.17-3.25-9.87-11.03,4.9-21.43,7.91-32.38,13.15l2.2,8.17c.2.75.67,1.31,1.36,1.73,1.14-.26,2.06-.48,3.17-.94l14.2-5.89ZM237.4,200.36c.55-.37.61-1.65.41-2.34l-2.23-7.9c-.11-.34-1.17-.44-1.55-.28l-2.78,1.17,3.37,9.7c.94.12,1.95.2,2.77-.35Z"/>
  <path d="M202.99,223.23c-.89-1.28-.43-2.36-1.3-2.97s-1.45,2.27-.27,4.39c3.23,5.81,17.33-5.95,3.98-1.1-.73.27-1.91.4-2.42-.32Z"/>
  <path d="M277.12,167.61l2.73,4.05c.13.2.87.47,1.01.33,1.05-1.01-.3-5.75-1.61-6.91-1.92.28-5.71.55-7,1.46-.12.09.45.5.61.53l4.24.54Z"/>
</svg>