<?xml version="1.0" encoding="UTF-8"?>
<svg id="Capa_1" data-name="Capa 1" xmlns="http://www.w3.org/2000/svg" viewBox="0 0 600 400">
  <path d="M78.08,313.57c3.58-1.53,8.23-.52,11.87.53,12.04,3.47,23.47,6.7,35.93,8.59,17.5,2.65,34.56,3.56,52.15,1.09,18.86-2.64,36.83-7.04,54.32-14.26,9.77-4.03,13.51-5.21,13.12-15.37-.53-13.45-.67-26.57,2.6-39.65,2.43-9.74,6.54-19.02,13.43-26.27,5.99-6.31,12.68-11.48,19.75-16.44,6.38-4.48,13.47-7.29,21.14-8.51,11.21-1.78,21.9-2.63,33.39-2.59l76.4.21,38.31.03c11.47,0,8.29-11.03,13.33-11.62,13.9-1.64,23.24-.32,37.44-2.26,4.83-.66,8.76-3.11,11.05-7.41,2.99-5.6,4.22-12.77.93-18.46-2.84-4.91-4.61-9.37-4.52-15.34l.23-15.53c0-.33.95-1.53,1.45-1.54l24.61-.3c3.15-.04,5.73-2.61,6.11-5.4,1.73-12.69,2.31-25.29,1.62-38.11-.18-3.37-2.03-5.97-5.52-5.91l-27.61.49c-5.27-12.68-16.45-21.19-29.95-22.19-1.8-.13-3.98,1.05-4.5,2.75l-2.85,9.25-4.73-.11c-1.92-.05-3.7.85-4.01,2.93l-1.18,7.88-74.55.53-241.63,1.05c-.44-1.86-.84-3.79-1.69-4.4-.89-.65-2.95-1.17-4.53-1.16l-83.04.52v3.13l77.11-.48c3.09-.02,5.46.13,8.49.28l.65,5.25,322.06-1.43,1.29-10.52c2.9-1.53,7.66,2.18,9.26-3.83.75-2.8,1.64-5.61,2.62-8.37,14.15.27,24.21,9.62,29.22,22.1l28.84-.63c.62-.01,2.06.45,2.44.9.37.45.68,1.7.73,2.54.7,12.27-.05,24.29-1.46,36.38-.29,2.48-2.23,3.37-4.41,3.4l-23.27.24c-2.68.03-4.58,1.93-4.61,4.46l-.19,18.35c-.06,5.32,2.16,9.88,4.78,14.27,3.61,6.04,1,20.16-9.99,21.39-13.62,1.53-26.35.71-37.26,2.26-8.35,1.19-2.96,11.58-13.11,11.57l-39.74-.06-74.58-.19c-9.82-.03-18.93.59-28.53,1.75-10.21,1.24-19.64,4-28.04,9.99-17.84,12.71-28.76,22.31-34.25,44.46-3.44,13.89-3.29,27.89-2.71,42.1.15,3.77-1.06,6.22-4.39,7.77-19.21,8.89-39.47,14.1-60.57,17.08-16.54,2.34-32.62,1.52-49.12-.85-12.83-1.85-24.66-5.11-37.05-8.69-4.59-1.33-10.02-2.4-14.53-.42-10.86,4.76-15.91,12.51-19.65,22.18v9.74c4.04-12.83,7.89-23.44,21.13-29.11Z"/>
  <path d="M103.56,309.77c6.47,2.7,13.16,3.31,20.02,4.5,10.51,1.82,20.64,2.69,31.41,2.27,14.31-.56,28.1-2.35,42.03-5.12,11.34-2.26,20.83-7.58,28.1-16.47,4.08-4.99,7.74-10.2,9.48-16.58,6.35-23.38-3.7-43.25-23.49-55.73-12.96-8.17-27.95-11.1-42.98-7.69-5.8,1.32-10,5.26-12.56,10.59-7.77,16.18-5.49,35.64,5.9,49.58,6.49,7.94,14.56,13.16,22.81,19.89-18.38-3.36-34.64-19.27-43.82-34.26-4.44-7.24-4.66-21.49-16.38-36.99-2.95-3.9-6.92-5.93-11.79-6.19-13-.69-27.23,3.48-33.04,16.52-8.05,18.07-7.33,41.68,3.39,58.28,4.99,7.73,12.52,13.89,20.94,17.4ZM82.23,235.16c5.14-11.7,19.61-15.62,31.09-14.34,3.41.38,6.18,2.17,8.23,4.86,11.32,14.88,11.41,28.82,16.16,36.64,10.01,16.45,24.65,29.68,43.26,35.43,2.27.7,5.57.98,6.99-.85,1.37-1.77-.71-4.02-2.17-5.06-6.02-4.31-11.47-8.43-16.93-13.39-14.27-12.97-18.9-33.51-10.68-51.1,2.03-4.34,5.4-8.05,10.15-9.21,14.37-3.51,28.76-.61,41.16,7.22,10.35,6.54,18.61,15.65,22.21,27.58,2.89,9.6,2.18,20.2-1.98,29.29-4.86,10.6-15.33,20.81-26.87,24.33-8.68,2.65-17.37,3.88-26.44,5.02-27.01,3.39-37,2.32-63.19-2.26-7.52-1.32-13.67-4.45-19.43-9.19-18.59-15.3-20.8-43.94-11.56-64.97Z"/>
</svg>