<?xml version="1.0" encoding="UTF-8"?>
<svg id="Capa_1" data-name="Capa 1" xmlns="http://www.w3.org/2000/svg" viewBox="0 0 600 400">
  <path d="M66.22,372.01c-3.07,4.03-7.89,5.23-12.62,5.32-5.48.11-10.1-2.64-12.08-7.99-.96-2.6-1.1-5.79-1.44-8.73-2.07-.48-4.13-1.77-4.66-4.38-1.97-9.79-3.29-19.78-2.84-29.95.28-6.38,1.79-12.33,3.66-18.39,3.95-12.81,8.45-25.01,13.15-37.6l13.08-35.03c4.02-10.76,7.58-21.2,10.64-32.24,1.97-7.08,3.54-13.95,3.56-21.35.04-15.81-9.79-34.96-26.62-37.52-7.48-1.14-15.27,2.17-19.72-3.47-2.23-2.83-2.14-6.17-1.11-9.49s3.12-5.47,6.8-5.75l10.03-.77c8.74-.67,15.5-5.96,19.28-13.72l6.22-12.74-8.25-13.54c-2.83-4.64-5.84-8.86-9.35-12.96-3.96-4.62-4.04-13.05,1.3-16.94,7.59-5.52,13.89,4.44,23.62-.8,2.2-1.18,3.12-5.25,8.36-4.58,1.65.21,3.17,1.89,4.32,3.81l15.5-14.47c.67-.63,2.36-1.38,3.25-1.35l13.3.48,3.7-9.75c2.89-.48,5.7-.5,8.89-.3l3.45,10.08,120.77-.76c1.22,0,2.81.39,3.5.89s.97,1.96,1.31,3.4l186.51-.81,57.54-.41.91-6.08c.24-1.61,1.62-2.3,3.1-2.26l3.65.09,2.2-7.14c.4-1.31,2.08-2.22,3.48-2.12,10.42.78,19.05,7.34,23.12,17.13l21.31-.38c2.7-.05,4.12,1.96,4.26,4.56.53,9.9.09,19.62-1.25,29.42-.29,2.16-2.29,4.14-4.72,4.17l-18.99.23c-.38,0-1.12.93-1.12,1.18l-.18,11.99c-.07,4.61,1.29,8.05,3.49,11.84,2.54,4.39,1.59,9.93-.72,14.25-1.77,3.32-4.8,5.21-8.53,5.72-10.96,1.5-18.17.48-28.9,1.75-3.89.46-1.43,8.98-10.29,8.97l-29.57-.02-58.97-.16c-8.87-.02-17.12.63-25.78,2-5.92.94-11.39,3.11-16.32,6.57-5.46,3.83-10.62,7.82-15.25,12.69-5.32,5.6-8.49,12.76-10.37,20.28-2.52,10.09-2.41,20.22-2,30.6.31,7.84-2.58,8.75-10.12,11.87-13.5,5.57-27.37,8.97-41.93,11.01-13.57,1.9-26.74,1.2-40.25-.84-9.62-1.46-18.44-3.94-27.73-6.63-2.81-.81-6.4-1.59-9.16-.41-10.22,4.37-13.19,12.56-16.31,22.47-3.4,10.78-6.12,21.29-8.9,32.29l-12.62,50c-.9,3.56-2.11,7.5-.98,10.95l5.52,16.78c.82,2.5-.38,5.03-2.85,5.97-2.31.89-4.89,1.46-7.49,1.63-8.02.53-15.72.82-23.8.76l-30.67-.25-39.78.03c-2.17,0-4.28.42-6.21.83.26,3.65,0,7.1-2.3,10.11ZM62.06,372.64c6.14-4.06,3.08-10.95,4.62-12.42,1.78-1.69,11.65-1.74,14.65-1.72l48.73.32c11.94.08,23.35.13,35.21-.41,2.38-.11,13.13-.66,11.81-4.48l-4.26-12.37c-1.66-4.83-2.36-9.23-1.06-14.36l13.73-54.38c2.69-10.67,5.37-20.82,8.68-31.26,3.27-10.34,6.71-18.64,17.29-23.28,3.49-1.53,7.67-.7,11.22.32,9.57,2.77,18.7,5.29,28.6,6.71,12.74,1.83,25.15,2.46,37.92.66,16.29-2.3,31.92-6.31,46.75-13.18,2.58-1.19,3.51-3.09,3.39-6-.44-10.97-.57-21.77,2.09-32.5,4.24-17.09,12.67-24.5,26.44-34.31,6.49-4.62,13.76-6.76,21.64-7.71,7.41-.9,14.44-1.37,22.02-1.35l57.57.15,30.68.05c7.84.01,3.67-8.01,10.12-8.93,8.42-1.2,18.25-.57,28.76-1.75,8.48-.95,10.5-11.85,7.71-16.51-2.03-3.39-3.74-6.91-3.69-11.02l.15-14.16c.02-1.96,1.49-3.42,3.56-3.45l17.96-.19c1.68-.02,3.18-.71,3.41-2.62,1.09-9.33,1.67-18.61,1.13-28.08-.04-.65-.27-1.61-.56-1.96s-1.4-.71-1.88-.7l-22.26.49c-3.87-9.63-11.64-16.85-22.56-17.06-.76,2.13-1.45,4.3-2.02,6.46-1.24,4.64-4.91,1.78-7.15,2.96l-1,8.12-248.59,1.1-.5-4.05c-2.33-.12-4.16-.23-6.55-.21l-116.05.73c-1.37,0-2.15-.64-2.47-1.64l-2.7-8.47c-1.9-.11-3.9-.06-5.63.17l-2.82,7.82c-.5,1.4-1.39,2.18-2.89,2.12l-13.8-.5-16.82,15.71c-3.18,2.97-3.22-3.38-5.82-3.75-4.58-.65-3.04,4.45-11.23,5.89-8.08,1.43-9.33-2.01-15.03-2.14-4.24-.09-6.96,3.73-7.03,7.6-.06,2.88.69,5.21,2.51,7.36,2.75,3.25,5.32,6.52,7.59,10.17l9.5,15.33c.6.97.89,2.59.4,3.6l-5.91,12.25c-4.16,8.62-11.66,14.54-21.34,15.27l-9.81.74c-2.75.21-4.27,1.76-4.98,4.24-.66,2.3-.99,4.57.38,6.6,3.16,4.69,9.58,2.43,16.81,2.91s14.16,4.38,19.12,9.96c9.98,11.25,13.28,26.52,10.23,41.17-1.87,8.97-4.01,17.3-7.13,25.88l-14.89,40.93c-5.85,16.07-11.92,31.57-17.09,47.84-5.47,17.21-4.57,24.43-2.39,41.92.34,2.76.99,6.41,2.47,8.42,5.85.46,2.2,3.73,4.83,10.89,2.96,8.09,13.24,7.34,18.22,4.05Z"/>
  <path d="M213.48,159.1c4.48-10.07,15.47-13.28,25.5-12.75,3.76.2,6.82,1.76,9.1,4.78,9.05,11.96,9.22,22.96,12.64,28.55,7.09,11.56,19.64,23.85,33.83,26.44-6.37-5.2-12.59-9.22-17.6-15.35-8.79-10.76-10.55-25.78-4.55-38.27,1.98-4.11,5.22-7.15,9.7-8.17,11.6-2.63,23.17-.37,33.17,5.94,15.28,9.64,23.03,24.97,18.13,43.02-1.34,4.93-4.16,8.94-7.31,12.8-5.62,6.87-12.94,10.97-21.69,12.71-10.75,2.14-21.4,3.52-32.44,3.95-8.31.32-16.13-.35-24.24-1.75-5.29-.92-10.46-1.39-15.45-3.47-6.5-2.71-12.31-7.46-16.16-13.43-8.27-12.81-8.83-31.04-2.61-44.98ZM215.8,159.93c-7.13,16.23-5.42,38.33,8.93,50.15,4.44,3.66,9.19,6.07,15,7.09,20.21,3.54,27.92,4.37,48.77,1.75,7-.88,13.71-1.83,20.41-3.87,8.9-2.72,16.99-10.6,20.74-18.78,3.21-7.01,3.76-15.19,1.53-22.61-2.78-9.21-9.15-16.24-17.14-21.29-9.57-6.05-20.68-8.28-31.77-5.57-3.67.89-6.27,3.76-7.83,7.11-6.35,13.57-2.77,29.43,8.25,39.44,4.22,3.83,8.42,7.01,13.07,10.34,1.12.8,2.73,2.54,1.67,3.9s-3.64,1.2-5.39.66c-14.37-4.44-25.66-14.65-33.39-27.35-3.67-6.03-3.74-16.79-12.48-28.28-1.58-2.07-3.72-3.46-6.35-3.75-8.86-.99-20.03,2.04-24,11.07Z"/>
  <path d="M61.26,358.56c3.29,2.23,1.75,8.32-.92,10.51-3.2,2.62-7.54,2.76-10.76-.04-2.95-2.57-3.68-7.1-1.27-10.82,4,.12,8.7-.4,12.94.35ZM59.96,360.67l-10.19-.1c-1.17,2.92-.14,5.41,1.82,6.96,2.13,1.69,5.04,1.35,6.93-.14s2.93-4.72,1.44-6.72Z"/>
  <path d="M59.65,57.5c3.64-.88,6.87,1.66,7.56,4.65.85,3.7-1.27,7.04-4.76,7.83s-6.59-1.19-7.6-4.54c-.97-3.25,1-7.02,4.8-7.94ZM60.52,59.82c-2.45.39-3.88,2.81-3.39,4.71.56,2.13,2.34,3.44,4.5,3.13s3.65-2.2,3.29-4.6c-.26-1.7-2.1-3.61-4.4-3.24Z"/>
</svg>