<?xml version="1.0" encoding="UTF-8"?>
<svg id="Capa_1" data-name="Capa 1" xmlns="http://www.w3.org/2000/svg" viewBox="0 0 600 400">
  <path d="M531.48,361.9c-1.93-.42-4.04-.83-6.21-.83l-39.78-.03-30.67.25c-8.08.07-15.78-.22-23.8-.76-2.59-.17-5.18-.74-7.49-1.63-2.47-.95-3.67-3.47-2.85-5.97l5.52-16.78c1.13-3.44-.08-7.38-.98-10.95l-12.62-50c-2.78-11-5.5-21.51-8.9-32.29-3.12-9.9-6.09-18.09-16.31-22.47-2.76-1.18-6.35-.4-9.16.41-9.29,2.68-18.12,5.17-27.73,6.63-13.5,2.04-26.67,2.75-40.25.84-14.55-2.04-28.43-5.44-41.93-11.01-7.54-3.11-10.43-4.02-10.12-11.87.41-10.38.52-20.51-2-30.6-1.88-7.52-5.05-14.68-10.37-20.28-4.62-4.87-9.79-8.86-15.25-12.69-4.93-3.46-10.4-5.63-16.32-6.57-8.66-1.37-16.91-2.03-25.78-2l-58.97.16-29.57.02c-8.86,0-6.4-8.51-10.29-8.97-10.73-1.27-17.94-.24-28.9-1.75-3.73-.51-6.76-2.4-8.53-5.72-2.31-4.32-3.26-9.85-.72-14.25,2.19-3.79,3.55-7.23,3.49-11.84l-.18-11.99c0-.25-.74-1.18-1.12-1.18l-18.99-.23c-2.43-.03-4.42-2.01-4.72-4.17-1.34-9.79-1.78-19.52-1.25-29.42.14-2.6,1.57-4.61,4.26-4.56l21.31.38c4.06-9.79,12.7-16.35,23.12-17.13,1.39-.1,3.07.81,3.48,2.12l2.2,7.14,3.65-.09c1.48-.03,2.86.65,3.1,2.26l.91,6.08,57.54.41,186.51.81c.34-1.44.65-2.92,1.31-3.4.69-.5,2.27-.9,3.5-.89l120.77.76,3.45-10.08c3.18-.2,6-.18,8.89.3l3.7,9.75,13.3-.48c.89-.03,2.58.72,3.25,1.35l15.5,14.47c1.15-1.91,2.67-3.6,4.32-3.81,5.24-.66,6.16,3.4,8.36,4.58,9.72,5.24,16.03-4.72,23.62.8,5.34,3.88,5.25,12.31,1.3,16.94-3.51,4.1-6.52,8.32-9.35,12.96l-8.25,13.54,6.22,12.74c3.78,7.76,10.54,13.04,19.28,13.72l10.03.77c3.68.28,5.79,2.51,6.8,5.75,1.04,3.32,1.13,6.66-1.11,9.49-4.45,5.65-12.24,2.33-19.72,3.47-16.83,2.57-26.65,21.71-26.62,37.52.02,7.4,1.59,14.28,3.56,21.35,3.07,11.04,6.63,21.48,10.64,32.24l13.08,35.03c4.7,12.6,9.2,24.79,13.15,37.6,1.87,6.06,3.37,12.01,3.66,18.39.45,10.17-.87,20.17-2.84,29.95-.53,2.61-2.59,3.9-4.66,4.38-.34,2.94-.48,6.13-1.44,8.73-1.98,5.35-6.6,8.1-12.08,7.99-4.73-.09-9.55-1.28-12.62-5.32-2.29-3.01-2.55-6.47-2.3-10.11ZM556.16,368.59c2.63-7.17-1.02-10.43,4.83-10.89,1.48-2.01,2.13-5.67,2.47-8.42,2.19-17.49,3.08-24.71-2.39-41.92-5.17-16.27-11.24-31.77-17.09-47.84l-14.89-40.93c-3.12-8.58-5.26-16.91-7.13-25.88-3.05-14.65.25-29.92,10.23-41.17,4.95-5.58,11.72-9.47,19.12-9.96,7.23-.49,13.65,1.78,16.81-2.91,1.37-2.03,1.04-4.3.38-6.6-.72-2.49-2.24-4.04-4.98-4.24l-9.81-.74c-9.67-.73-17.18-6.65-21.34-15.27l-5.91-12.25c-.49-1.01-.2-2.63.4-3.6l9.5-15.33c2.27-3.66,4.84-6.92,7.59-10.17,1.82-2.15,2.57-4.48,2.51-7.36-.07-3.87-2.79-7.69-7.03-7.6-5.7.13-6.94,3.57-15.03,2.14s-6.64-6.55-11.23-5.89c-2.6.37-2.64,6.72-5.82,3.75l-16.82-15.71-13.8.5c-1.5.05-2.39-.72-2.89-2.12l-2.82-7.82c-1.73-.23-3.72-.28-5.63-.17l-2.7,8.47c-.32,1-1.1,1.65-2.47,1.64l-116.05-.73c-2.39-.01-4.22.1-6.55.21l-.5,4.05-248.59-1.1-1-8.12c-2.24-1.18-5.91,1.68-7.15-2.96-.58-2.16-1.27-4.33-2.02-6.46-10.92.2-18.68,7.43-22.56,17.06l-22.26-.49c-.48-.01-1.59.35-1.88.7s-.53,1.31-.56,1.96c-.54,9.47.04,18.75,1.13,28.08.22,1.92,1.72,2.6,3.41,2.62l17.96.19c2.07.02,3.54,1.49,3.56,3.45l.15,14.16c.04,4.11-1.66,7.62-3.69,11.02-2.79,4.66-.77,15.56,7.71,16.51,10.52,1.18,20.34.55,28.76,1.75,6.45.92,2.28,8.94,10.12,8.93l30.68-.05,57.57-.15c7.58-.02,14.61.45,22.02,1.35,7.88.96,15.16,3.09,21.64,7.71,13.77,9.81,22.2,17.22,26.44,34.31,2.66,10.72,2.54,21.53,2.09,32.5-.12,2.91.81,4.8,3.39,6,14.83,6.87,30.47,10.88,46.75,13.18,12.77,1.8,25.18,1.17,37.92-.66,9.9-1.42,19.03-3.94,28.6-6.71,3.55-1.03,7.73-1.85,11.22-.32,10.58,4.63,14.03,12.94,17.29,23.28,3.3,10.44,5.98,20.59,8.68,31.26l13.73,54.38c1.3,5.13.6,9.53-1.06,14.36l-4.26,12.37c-1.31,3.82,9.43,4.37,11.81,4.48,11.86.54,23.26.49,35.21.41l48.73-.32c3-.02,12.87.03,14.65,1.72,1.54,1.47-1.52,8.35,4.62,12.42,4.97,3.29,15.25,4.04,18.22-4.05Z"/>
  <path d="M383.9,204.08c-3.85,5.97-9.66,10.72-16.16,13.43-4.99,2.09-10.16,2.56-15.45,3.47-8.11,1.4-15.93,2.08-24.24,1.75-11.04-.43-21.69-1.81-32.44-3.95-8.75-1.74-16.07-5.85-21.69-12.71-3.15-3.85-5.98-7.87-7.31-12.8-4.9-18.04,2.85-33.38,18.13-43.02,10-6.31,21.57-8.57,33.17-5.94,4.48,1.02,7.72,4.06,9.7,8.17,6,12.49,4.24,27.51-4.55,38.27-5.01,6.13-11.24,10.15-17.6,15.35,14.19-2.59,26.74-14.88,33.83-26.44,3.43-5.59,3.6-16.59,12.64-28.55,2.28-3.01,5.34-4.58,9.1-4.78,10.04-.53,21.02,2.68,25.5,12.75,6.21,13.95,5.66,32.17-2.61,44.98ZM360.2,148.86c-2.63.29-4.77,1.67-6.35,3.75-8.73,11.48-8.81,22.25-12.48,28.28-7.73,12.7-19.02,22.91-33.39,27.35-1.75.54-4.3.76-5.39-.66-1.06-1.36.55-3.1,1.67-3.9,4.65-3.33,8.85-6.5,13.07-10.34,11.02-10.01,14.59-25.87,8.25-39.44-1.56-3.35-4.17-6.21-7.83-7.11-11.09-2.71-22.2-.47-31.77,5.57-7.99,5.05-14.37,12.08-17.14,21.29-2.23,7.41-1.68,15.59,1.53,22.61,3.75,8.18,11.84,16.06,20.74,18.78,6.7,2.04,13.41,2.99,20.41,3.87,20.85,2.62,28.56,1.79,48.77-1.75,5.8-1.02,10.55-3.43,15-7.09,14.35-11.81,16.06-33.92,8.93-50.15-3.97-9.03-15.13-12.06-24-11.07Z"/>
  <path d="M551.68,358.21c2.42,3.72,1.69,8.25-1.27,10.82-3.22,2.8-7.56,2.66-10.76.04-2.67-2.19-4.21-8.28-.92-10.51,4.25-.75,8.94-.22,12.94-.35ZM541.49,367.4c1.88,1.49,4.79,1.83,6.93.14,1.96-1.55,2.99-4.04,1.82-6.96l-10.19.1c-1.49,2-.47,5.21,1.44,6.72Z"/>
  <path d="M545.15,65.45c-1,3.35-4.21,5.3-7.6,4.54-3.49-.79-5.62-4.13-4.76-7.83.69-2.99,3.92-5.53,7.56-4.65,3.8.92,5.77,4.69,4.8,7.94ZM535.09,63.06c-.37,2.4,1.14,4.29,3.29,4.6,2.15.31,3.94-1,4.5-3.13.5-1.9-.94-4.32-3.39-4.71-2.29-.37-4.13,1.55-4.4,3.24Z"/>
</svg>