<?xml version="1.0" encoding="UTF-8"?>
<svg id="Capa_1" data-name="Capa 1" xmlns="http://www.w3.org/2000/svg" viewBox="0 0 600 400">
  <defs>
    <style>
      .cls-1 {
        fill: #1d1d1b;
        font-family: MyriadPro-Regular, 'Myriad Pro';
        font-size: 27.92px;
      }
    </style>
  </defs>
  <g>
    <path d="M521.92,313.57c-3.58-1.53-8.23-.52-11.87.53-12.04,3.47-23.47,6.7-35.93,8.59-17.5,2.65-34.56,3.56-52.15,1.09-18.86-2.64-36.83-7.04-54.32-14.26-9.77-4.03-13.51-5.21-13.12-15.37.53-13.45.67-26.57-2.6-39.65-2.43-9.74-6.54-19.02-13.43-26.27-5.99-6.31-12.68-11.48-19.75-16.44-6.38-4.48-13.47-7.29-21.14-8.51-11.21-1.78-21.9-2.63-33.39-2.59l-76.4.21-38.31.03c-11.47,0-8.29-11.03-13.33-11.62-13.9-1.64-23.24-.32-37.44-2.26-4.83-.66-8.76-3.11-11.05-7.41-2.99-5.6-4.22-12.77-.93-18.46,2.84-4.91,4.61-9.37,4.52-15.34l-.23-15.53c0-.33-.95-1.53-1.45-1.54l-24.61-.3c-3.15-.04-5.73-2.61-6.11-5.4-1.73-12.69-2.31-25.29-1.62-38.11.18-3.37,2.03-5.97,5.52-5.91l27.61.49c5.27-12.68,16.45-21.19,29.95-22.19,1.8-.13,3.98,1.05,4.5,2.75l2.85,9.25,4.73-.11c1.92-.05,3.7.85,4.01,2.93l1.18,7.88,74.55.53,241.63,1.05c.44-1.86.84-3.79,1.69-4.4.89-.65,2.95-1.17,4.53-1.16l83.04.52v3.13s-77.11-.48-77.11-.48c-3.09-.02-5.46.13-8.49.28l-.65,5.25-322.06-1.43-1.29-10.52c-2.9-1.53-7.66,2.18-9.26-3.83-.75-2.8-1.64-5.61-2.62-8.37-14.15.27-24.21,9.62-29.22,22.1l-28.84-.63c-.62-.01-2.06.45-2.44.9-.37.45-.68,1.7-.73,2.54-.7,12.27.05,24.29,1.46,36.38.29,2.48,2.23,3.37,4.41,3.4l23.27.24c2.68.03,4.58,1.93,4.61,4.46l.19,18.35c.06,5.32-2.16,9.88-4.78,14.27-3.61,6.04-1,20.16,9.99,21.39,13.62,1.53,26.35.71,37.26,2.26,8.35,1.19,2.96,11.58,13.11,11.57l39.74-.06,74.58-.19c9.82-.03,18.93.59,28.53,1.75,10.21,1.24,19.64,4,28.04,9.99,17.84,12.71,28.76,22.31,34.25,44.46,3.44,13.89,3.29,27.89,2.71,42.1-.15,3.77,1.06,6.22,4.39,7.77,19.21,8.89,39.47,14.1,60.57,17.08,16.54,2.34,32.62,1.52,49.12-.85,12.83-1.85,24.66-5.11,37.05-8.69,4.59-1.33,10.02-2.4,14.53-.42,10.86,4.76,15.91,12.51,19.65,22.18v9.74c-4.04-12.83-7.89-23.44-21.13-29.11Z"/>
    <path d="M517.38,292.36c10.72-16.6,11.44-40.21,3.39-58.28-5.81-13.04-20.04-17.21-33.04-16.52-4.87.26-8.84,2.29-11.79,6.19-11.72,15.5-11.94,29.75-16.38,36.99-9.18,14.98-25.44,30.9-43.82,34.26,8.25-6.73,16.31-11.94,22.81-19.89,11.39-13.94,13.67-33.4,5.9-49.58-2.56-5.33-6.76-9.27-12.56-10.59-15.03-3.41-30.02-.48-42.98,7.69-19.8,12.48-29.84,32.35-23.49,55.73,1.73,6.38,5.39,11.59,9.48,16.58,7.28,8.89,16.76,14.21,28.1,16.47,13.93,2.77,27.73,4.57,42.03,5.12,10.76.42,20.9-.46,31.41-2.27,6.85-1.19,13.55-1.8,20.02-4.5,8.42-3.52,15.95-9.67,20.94-17.4ZM506.21,300.13c-5.75,4.74-11.91,7.87-19.43,9.19-26.19,4.58-36.17,5.66-63.19,2.26-9.07-1.14-17.76-2.37-26.44-5.02-11.53-3.52-22.01-13.73-26.87-24.33-4.16-9.09-4.88-19.69-1.98-29.29,3.6-11.94,11.86-21.04,22.21-27.58,12.4-7.83,26.79-10.73,41.16-7.22,4.75,1.16,8.12,4.87,10.15,9.21,8.22,17.58,3.59,38.13-10.68,51.1-5.47,4.97-10.91,9.08-16.93,13.39-1.45,1.04-3.54,3.29-2.17,5.06,1.42,1.83,4.72,1.55,6.99.85,18.61-5.75,33.24-18.98,43.26-35.43,4.76-7.81,4.85-21.76,16.16-36.64,2.04-2.69,4.82-4.48,8.23-4.86,11.48-1.28,25.94,2.64,31.09,14.34,9.24,21.02,7.02,49.66-11.56,64.97Z"/>
  </g>
  <text class="cls-1" transform="translate(148.24 166.61)"><tspan x="0" y="0">N° DE SERIE</tspan></text>
</svg>