<?xml version="1.0" encoding="UTF-8"?>
<svg id="Capa_1" data-name="Capa 1" xmlns="http://www.w3.org/2000/svg" xmlns:xlink="http://www.w3.org/1999/xlink" viewBox="0 0 600 400">
  <defs>
    <style>
      .cls-1 {
        fill: none;
      }

      .cls-2 {
        clip-path: url(#clippath);
      }
    </style>
    <clipPath id="clippath">
      <rect class="cls-1" x="683.67" y="46.68" width="552.66" height="306.65"/>
    </clipPath>
  </defs>
  <g>
    <path d="M470.52,218.39c-5.84-5.68-13.05-10.16-20.87-12.11-4.61,2.18-7.48,6.69-9.22,11.14-3.48,8.92-6.86,17.36-12.19,25.27-7.37,10.93-17.97,18.37-31.03,21.02-27.9,5.66-61.8-1.61-78.36-26.64-7.84-11.85-9.52-25.38-7.82-39.42.56-4.59-1.29-11.52-5.94-13.01-23.88-2.59-42.59-20.31-44.99-44.46l-14.15-.27c-1.74-.03-3.9-.56-4.96-1.81-.89-1.05-1.03-3.01-.93-5.21l-116.25-2.59c-1.53,3.59-4.25,5.58-7.84,5.41-3.39-.16-5.89-2.24-7.12-5.75l-21.88-.65c-10.19-.3-16.21-10.32-14.48-20.3l-50.55-1.11c-3.85-.08-6.59-2.51-6.48-6.51l.55-21.37c.07-2.79,2.83-5.22,5.47-5.18l16.36.23c1.35-5.74,6.31-9.75,12.06-9.04,5.29.66,8.65,4.77,10.07,9.61l200.52,4.43,17.42-7.43,141.39,3.13c4.31.1,7.01,3.42,7.39,7.13.2,1.98-.75,3.46-2.51,4.97,10,4.18,18.24,10.69,24.05,19.72l10.01,4.26c5.13,2.18,11.37.69,16.33-1.47,5.93-2.58,10.41-6.93,14.23-12.01,4.77-6.34,13.42-8.16,17.14-3.2,1.09,1.45,1.63,4.13,1.11,6.21-.88,3.51-3.4,5.39-6.46,7-2.44,1.28-3.76,4.07-5.09,6.53-4.53,8.38-10.37,15.52-18.62,20.17-.06,1.88.3,3.89,1.11,5.11,6.66,1.68,12.08,5.49,16.04,10.93,24.04,8.83,45.42,22.14,61.13,42.56,10.15,13.2,15.13,28.16,17.64,44.62l11.52,75.54c1.76,11.56-7.47,20.45-18.72,20.2l-78.02-1.76c-6.62-.15-12.02-3.04-15.27-8.05-3.49-5.38-3.61-11.31-1.15-17.56,10.17-25.83,21.84-66.42-.64-88.29ZM55.62,75.41c-.84-3.97-3.68-6.43-7.15-6.28-3.23.14-6.39,2.39-7.22,6.03l14.37.26ZM423.19,84.57c.91-2.44-.78-5.54-3.96-5.61l-140.29-3.12c-3.12,1.17-5.69,2.25-8.31,3.7l135.91,4.06c5.74.17,10.83,1.5,16.64.97ZM260.14,109.98l.58-26.74-238.6-5.26c-1.74.04-2.98,1.31-3.02,2.82l-.46,21.32c-.02.86,1.11,2.04,2.24,2.58l239.24,5.29ZM410.83,95.82l-1.3,54.93c-.16,6.67-5.66,10.7-12.07,10.56l-92.49-2.09c-6.83-.15-10.62-5.98-10.49-12.15l1.23-55.02c.07-2.96,1.02-5.29,2.58-7.98l-33.83-.81-1.37,50.59c-.65,24.14,16.69,43.83,40.45,47.27l30.04,4.36,115.09,17.16,4.94-64.87c.97-12.8-4.11-24.14-11.95-33.69-8.24-9.11-19.14-15.1-32.48-16.92.77,3.08,1.7,5.61,1.63,8.65ZM330.01,134c1.61,0,3.9.69,5.65.59,10.75-.63,21.28,1.54,30.47,6.91,1.43.84,2.74,3.25,2.62,4.54-.13,1.43-1.55,3.5-3.07,4.3-7.92,4.13-16.72,5.73-25.67,5.59l-26.02-.41c-3.69-.06-7.03-.39-10.92-.28.81.44,2.41,1.14,3.18,1.15l26.59.33,14.07.29,51.25,1.06c4.13.09,8.1-2.88,8.2-7.34l1.27-56.85c.05-2.33-1.99-6.49-4.73-6.57l-97.75-3.12c-1.47-.05-3.08,1.13-3.93,2.38l43.81,1.2c5.26.14,25.23,4.55,24.78,11.33-.46,6.92-20.83,10.21-26.65,10.1l-43.88-.86c-.6-.01-.83,2.44-.21,2.45l42.74,1.01c6.82.16,27.23,4.25,27.46,11.22.24,7.19-20.27,10.36-26.73,10.32-8.18-.05-15.98.06-23.98-.4-6.87-.39-13.41-.35-20.47-.17,1.18.42,3.22,1.06,4.45,1.07l27.49.15ZM365.01,97.03c-7.64-4.25-16.16-6.22-24.99-6.4l-40.78-.84-.39,15.41,44.01.86c7.21.14,29.56-4.9,22.15-9.03ZM475.1,142.85l-2.5-9.33c11.25-5.14,16.32-13,21.9-23.38,3.13-5.83,8.64-4.55,9.56-10.14.4-2.44-1.45-4.36-3.76-4.43-9.95-.34-9.43,11.69-25.54,18.22-5.66,2.29-12.43,3.48-18.11.97l-5.34-2.36c5.22,10.68,6.59,21.99,4.99,34.15l20.66.58c3.51.1,6.88,1.01,10.34,1.49-3.5-3.26-7.34-4.81-12.2-5.76ZM259.66,130.13l.46-16.61-184.21-4.07c-2.12,7.47,2.93,16.64,12.02,16.85l171.73,3.83ZM365.96,123.03c-.76-3.52-16.78-7.72-21.59-7.84l-45.83-1.17-.39,15.42,43.46.87c6.82.14,25.1-3.8,24.35-7.27ZM116.02,132.56c1.52.07,2.73-.45,4.03-2.08l-7.49-.25c1.03,1.5,2.13,2.27,3.46,2.33ZM259.64,137.01l.05-3.48-14.6-.37c-.54-.01-1.66.81-1.98,1.2-.4.49.74,2.26,1.53,2.28l15,.38ZM363.9,143.79c-7.18-3.66-15-6.02-23.25-6.21l-41.99-.93-.34,15.43,43.3.86c8.12.16,30.02-5.21,22.28-9.15ZM566.81,330.78c9.22.2,15.72-8.09,14.37-16.87l-11.62-75.61c-2.38-15.47-6.96-29.51-16.42-42.01-16.04-21.18-39.74-35.51-64.82-43.72-4.78-1.56-9.57-2.36-14.56-2.44l-17.64-.3-3.63,53.67c47.42,17.86,35.99,67.63,21.46,104.93-1.84,4.72-1.84,9.54.95,13.89,2.48,3.88,6.64,6.66,12.34,6.78l79.57,1.69ZM426.26,223.23c-6.35,14.23-14.15,25.89-30.53,29.55-11.86,2.65-24.03,2.3-35.83-.62-22.8-5.63-40.13-22.73-38.3-47.36-.13-6.21,1.8-11.19,5.76-16.93l-16.02-2.41c2.74,4.69,3.4,9.48,2.72,14.86-1.73,13.75,1.29,27.48,9.9,38.4,16.78,21.29,47.94,27.18,73.23,21.71,22.24-4.81,32-22.26,39.36-41.84,1.72-4.98,3.99-8.92,8.09-13.2l-16.13-2.43c1.35,7.15.65,13.8-2.24,20.28ZM423.22,202.12l-15.99-2.3c4.47,15.82,3.07,29.67-8.18,41.85-2.61,2.82-6.48,3.46-9.41,1.06-2.83-2.31-3.3-6.82-.46-9.68,10.13-10.2,8.66-23.45,2.93-35.56l-60.43-9c-4.92,4.14-6.61,10.06-7.01,16.18-.85,13.07,3.89,25.29,14.08,33.6,14.94,12.19,36.34,15.26,54.86,11.73,16.07-3.06,23.41-14.07,29.62-27.74,2.76-6.08,4.63-19.47,0-20.13ZM391.23,239.87c1.09,1.27,3.59,1.44,4.9.11,11.37-11.5,12.45-25.81,7.43-40.75l-7.38-1.07c4.87,13.32,6.11,26.12-4.61,36.96-1.29,1.3-1.33,3.6-.34,4.75Z"/>
    <path d="M531.42,270c-1.57,5.73-7.52,9.08-13.36,7.47-5.4-1.49-8.85-7.26-7.55-12.76,1.36-5.76,7.02-9.67,13.28-8.03,6.25,1.63,9.13,7.84,7.63,13.32ZM513.78,264.8c-1.2,3.63.75,7.9,4.36,9.33,3.97,1.57,8.33-.26,9.95-4.19,1.47-3.57.02-8.26-4.33-9.92s-8.65.76-9.98,4.78Z"/>
  </g>
  <g class="cls-2">
    <path d="M675,384.12c2.96,7.52,2.82,14.66-1.38,21.13-3.91,6.02-10.41,9.5-18.37,9.68l-93.87,2.11c-13.53.3-24.65-10.39-22.53-24.3l13.86-90.88c3.02-19.8,9.01-37.8,21.22-53.68,18.89-24.57,44.62-40.58,73.54-51.21,4.77-6.55,11.29-11.13,19.3-13.15.99-1.47,1.41-3.88,1.34-6.15-9.92-5.59-16.94-14.19-22.4-24.27-1.6-2.96-3.19-6.31-6.12-7.86-3.68-1.94-6.72-4.2-7.78-8.43-.62-2.49.03-5.73,1.34-7.47,4.48-5.96,14.89-3.77,20.62,3.86,4.6,6.11,9.98,11.34,17.12,14.45,5.97,2.6,13.48,4.4,19.65,1.77l12.04-5.13c6.99-10.87,16.9-18.7,28.93-23.73-2.11-1.82-3.26-3.6-3.02-5.98.45-4.47,3.71-8.47,8.89-8.58l170.1-3.76,20.96,8.94,241.24-5.33c1.71-5.83,5.76-10.78,12.12-11.57,6.92-.86,12.89,3.97,14.51,10.88l19.68-.27c3.18-.04,6.5,2.88,6.59,6.23l.67,25.72c.12,4.81-3.17,7.73-7.8,7.83l-60.82,1.34c2.08,12-5.15,24.06-17.42,24.42l-26.33.78c-1.49,4.21-4.49,6.72-8.57,6.91-4.32.2-7.59-2.19-9.43-6.51l-139.86,3.12c.11,2.65-.05,5-1.12,6.26-1.27,1.5-3.87,2.14-5.96,2.18l-17.02.32c-2.89,29.04-25.4,50.37-54.13,53.49-5.6,1.79-7.82,10.12-7.15,15.65,2.04,16.89.03,33.18-9.41,47.43-19.93,30.11-60.7,38.86-94.28,32.05-15.72-3.19-28.46-12.14-37.33-25.29-6.42-9.51-10.49-19.67-14.67-30.4-2.09-5.36-5.54-10.77-11.09-13.4-9.4,2.35-18.07,7.73-25.1,14.57-27.05,26.31-13.01,75.15-.77,106.22ZM1192.24,105.58c-1-4.38-4.8-7.09-8.69-7.25-4.17-.18-7.6,2.79-8.6,7.56l17.29-.31ZM752.74,115.72l163.51-4.89c-3.15-1.74-6.24-3.05-9.99-4.45l-168.78,3.76c-3.83.09-5.86,3.82-4.76,6.75,7,.63,13.12-.97,20.02-1.17ZM1216.73,141.12c1.36-.65,2.72-2.07,2.7-3.1l-.55-25.65c-.04-1.82-1.54-3.35-3.63-3.39l-287.06,6.33.7,32.17,287.84-6.36ZM749.56,120.03c-16.05,2.18-29.17,9.39-39.07,20.35-9.43,11.49-15.56,25.13-14.38,40.53l5.94,78.05,138.47-20.65,36.14-5.24c28.59-4.15,49.45-27.83,48.66-56.87l-1.65-60.86-40.7.97c1.88,3.23,3.02,6.03,3.11,9.59l1.48,66.2c.17,7.41-4.4,14.43-12.62,14.61l-111.27,2.52c-7.71.17-14.33-4.68-14.52-12.7l-1.56-66.09c-.09-3.66,1.03-6.7,1.96-10.41ZM877.9,176.19c1.48,0,3.93-.78,5.35-1.28-8.49-.22-16.36-.27-24.62.21-9.63.55-19.01.42-28.85.48-7.78.05-32.45-3.76-32.16-12.42.28-8.39,24.83-13.31,33.04-13.5l51.42-1.22c.74-.02.47-2.96-.26-2.95l-52.8,1.03c-7.01.14-31.51-3.82-32.07-12.15-.54-8.16,23.48-13.46,29.81-13.63l52.71-1.45c-1.02-1.51-2.96-2.92-4.73-2.87l-117.6,3.76c-3.3.11-5.75,5.1-5.69,7.91l1.53,68.39c.12,5.36,4.9,8.94,9.86,8.83l61.66-1.28,16.93-.35,31.99-.4c.93-.01,2.86-.85,3.83-1.38-4.68-.12-8.7.27-13.14.34l-31.31.49c-10.77.17-21.35-1.75-30.88-6.72-1.84-.96-3.54-3.45-3.7-5.17-.14-1.55,1.43-4.46,3.15-5.47,11.06-6.47,23.72-9.07,36.66-8.32,2.11.12,4.85-.7,6.79-.71l33.08-.18ZM829.36,142.75l52.95-1.03-.46-18.54-49.07,1.01c-10.62.22-20.87,2.58-30.07,7.7-8.92,4.97,17.97,11.03,26.64,10.86ZM655.59,193.94c4.16-.58,8.22-1.68,12.44-1.8l24.85-.69c-1.92-14.63-.27-28.23,6.01-41.08l-6.42,2.84c-6.83,3.01-14.98,1.59-21.78-1.17-19.38-7.85-18.75-22.32-30.73-21.92-2.77.09-5,2.39-4.52,5.34,1.1,6.73,7.74,5.19,11.5,12.2,6.71,12.5,12.81,21.95,26.35,28.13l-3.01,11.22c-5.86,1.15-10.47,3.01-14.68,6.93ZM1136.07,167.11c10.94-.24,17.02-11.28,14.46-20.27l-221.62,4.9.56,19.98,206.6-4.61ZM830.87,171.92l52.29-1.04-.47-18.56-55.13,1.41c-5.78.15-25.06,5.2-25.98,9.43s21.09,8.91,29.29,8.75ZM1106.44,171.83l-9.01.31c1.57,1.96,3.03,2.59,4.85,2.5,1.6-.08,2.91-1,4.16-2.81ZM947.54,179.54c.95-.02,2.32-2.16,1.84-2.74-.38-.47-1.74-1.46-2.38-1.44l-17.56.44.06,4.19,18.05-.45ZM830.87,199.16l52.09-1.03-.41-18.56-50.52,1.12c-9.92.22-19.33,3.06-27.97,7.47-9.31,4.75,17.03,11.21,26.81,11.01ZM655.66,411.08c6.86-.15,11.86-3.48,14.85-8.15,3.35-5.24,3.35-11.04,1.14-16.72-17.48-44.87-31.23-104.76,25.82-126.24l-4.37-64.57-21.22.36c-6.01.1-11.77,1.06-17.52,2.94-30.18,9.87-58.7,27.11-77.99,52.6-11.39,15.05-16.9,31.94-19.76,50.55l-13.98,90.96c-1.62,10.57,6.2,20.53,17.29,20.3l95.74-2.03ZM726.32,259.33l-19.41,2.92c4.93,5.15,7.67,9.88,9.73,15.88,8.85,23.56,20.59,44.55,47.35,50.34,30.43,6.59,67.92-.51,88.11-26.12,10.36-13.14,14-29.66,11.91-46.2-.82-6.47-.02-12.23,3.27-17.87l-19.28,2.9c4.76,6.9,7.08,12.9,6.93,20.37,2.2,29.64-18.65,50.21-46.08,56.98-14.21,3.51-28.84,3.93-43.11.74-19.7-4.4-29.09-18.43-36.73-35.55-3.48-7.79-4.33-15.8-2.7-24.4ZM732.68,282.55c7.47,16.45,16.3,29.69,35.63,33.38,22.29,4.25,48.03.56,66-14.11,12.26-10,17.97-24.7,16.94-40.43-.48-7.36-2.51-14.48-8.44-19.46l-72.7,10.83c-6.89,14.56-8.66,30.51,3.53,42.78,3.42,3.44,2.85,8.87-.55,11.65-3.53,2.88-8.19,2.12-11.33-1.28-13.53-14.65-15.21-31.32-9.84-50.35l-19.24,2.77c-5.58.8-3.33,16.9-.01,24.22ZM770.76,298.03c-12.9-13.05-11.41-28.44-5.55-44.46l-8.88,1.29c-6.04,17.98-4.74,35.2,8.94,49.03,1.58,1.6,4.59,1.39,5.9-.14,1.19-1.39,1.14-4.15-.41-5.72Z"/>
  </g>
</svg>