<?xml version="1.0" encoding="UTF-8"?>
<svg id="Capa_1" data-name="Capa 1" xmlns="http://www.w3.org/2000/svg" xmlns:xlink="http://www.w3.org/1999/xlink" viewBox="0 0 600 400">
  <defs>
    <style>
      .cls-1 {
        fill: none;
      }

      .cls-2 {
        clip-path: url(#clippath);
      }
    </style>
    <clipPath id="clippath">
      <rect class="cls-1" x="23.67" y="46.68" width="552.66" height="306.65"/>
    </clipPath>
  </defs>
  <g class="cls-2">
    <path d="M15,384.12c2.96,7.52,2.82,14.66-1.38,21.13-3.91,6.02-10.41,9.5-18.37,9.68l-93.87,2.11c-13.53.3-24.65-10.39-22.53-24.3l13.86-90.88c3.02-19.8,9.01-37.8,21.22-53.68,18.89-24.57,44.62-40.58,73.54-51.21,4.77-6.55,11.29-11.13,19.3-13.15.99-1.47,1.41-3.88,1.34-6.15-9.92-5.59-16.94-14.19-22.4-24.27-1.6-2.96-3.19-6.31-6.12-7.86-3.68-1.94-6.72-4.2-7.78-8.43-.62-2.49.03-5.73,1.34-7.47,4.48-5.96,14.89-3.77,20.62,3.86,4.6,6.11,9.98,11.34,17.12,14.45,5.97,2.6,13.48,4.4,19.65,1.77l12.04-5.13c6.99-10.87,16.9-18.7,28.93-23.73-2.11-1.82-3.26-3.6-3.02-5.98.45-4.47,3.71-8.47,8.89-8.58l170.1-3.76,20.96,8.94,241.24-5.33c1.71-5.83,5.76-10.78,12.12-11.57,6.92-.86,12.89,3.97,14.51,10.88l19.68-.27c3.18-.04,6.5,2.88,6.59,6.23l.67,25.72c.12,4.81-3.17,7.73-7.8,7.83l-60.82,1.34c2.08,12-5.15,24.06-17.42,24.42l-26.33.78c-1.49,4.21-4.49,6.72-8.57,6.91-4.32.2-7.59-2.19-9.43-6.51l-139.86,3.12c.11,2.65-.05,5-1.12,6.26-1.27,1.5-3.87,2.14-5.96,2.18l-17.02.32c-2.89,29.04-25.4,50.37-54.13,53.49-5.6,1.79-7.82,10.12-7.15,15.65,2.04,16.89.03,33.18-9.41,47.43-19.93,30.11-60.7,38.86-94.28,32.05-15.72-3.19-28.46-12.14-37.33-25.29-6.42-9.51-10.49-19.67-14.67-30.4-2.09-5.36-5.54-10.77-11.09-13.4-9.4,2.35-18.07,7.73-25.1,14.57-27.05,26.31-13.01,75.15-.77,106.22ZM532.24,105.58c-1-4.38-4.8-7.09-8.69-7.25-4.17-.18-7.6,2.79-8.6,7.56l17.29-.31ZM92.74,115.72l163.51-4.89c-3.15-1.74-6.24-3.05-9.99-4.45l-168.78,3.76c-3.83.09-5.86,3.82-4.76,6.75,7,.63,13.12-.97,20.02-1.17ZM556.73,141.12c1.36-.65,2.72-2.07,2.7-3.1l-.55-25.65c-.04-1.82-1.54-3.35-3.63-3.39l-287.06,6.33.7,32.17,287.84-6.36ZM89.56,120.03c-16.05,2.18-29.17,9.39-39.07,20.35-9.43,11.49-15.56,25.13-14.38,40.53l5.94,78.05,138.47-20.65,36.14-5.24c28.59-4.15,49.45-27.83,48.66-56.87l-1.65-60.86-40.7.97c1.88,3.23,3.02,6.03,3.11,9.59l1.48,66.2c.17,7.41-4.4,14.43-12.62,14.61l-111.27,2.52c-7.71.17-14.33-4.68-14.52-12.7l-1.56-66.09c-.09-3.66,1.03-6.7,1.96-10.41ZM217.9,176.19c1.48,0,3.93-.78,5.35-1.28-8.49-.22-16.36-.27-24.62.21-9.63.55-19.01.42-28.85.48-7.78.05-32.45-3.76-32.16-12.42.28-8.39,24.83-13.31,33.04-13.5l51.42-1.22c.74-.02.47-2.96-.26-2.95l-52.8,1.03c-7.01.14-31.51-3.82-32.07-12.15-.54-8.16,23.48-13.46,29.81-13.63l52.71-1.45c-1.02-1.51-2.96-2.92-4.73-2.87l-117.6,3.76c-3.3.11-5.75,5.1-5.69,7.91l1.53,68.39c.12,5.36,4.9,8.94,9.86,8.83l61.66-1.28,16.93-.35,31.99-.4c.93-.01,2.86-.85,3.83-1.38-4.68-.12-8.7.27-13.14.34l-31.31.49c-10.77.17-21.35-1.75-30.88-6.72-1.84-.96-3.54-3.45-3.7-5.17-.14-1.55,1.43-4.46,3.15-5.47,11.06-6.47,23.72-9.07,36.66-8.32,2.11.12,4.85-.7,6.79-.71l33.08-.18ZM169.36,142.75l52.95-1.03-.46-18.54-49.07,1.01c-10.62.22-20.87,2.58-30.07,7.7-8.92,4.97,17.97,11.03,26.64,10.86ZM-4.41,193.94c4.16-.58,8.22-1.68,12.44-1.8l24.85-.69c-1.92-14.63-.27-28.23,6.01-41.08l-6.42,2.84c-6.83,3.01-14.98,1.59-21.78-1.17-19.38-7.85-18.75-22.32-30.73-21.92-2.77.09-5,2.39-4.52,5.34,1.1,6.73,7.74,5.19,11.5,12.2,6.71,12.5,12.81,21.95,26.35,28.13l-3.01,11.22c-5.86,1.15-10.47,3.01-14.68,6.93ZM476.07,167.11c10.94-.24,17.02-11.28,14.46-20.27l-221.62,4.9.56,19.98,206.6-4.61ZM170.87,171.92l52.29-1.04-.47-18.56-55.13,1.41c-5.78.15-25.06,5.2-25.98,9.43s21.09,8.91,29.29,8.75ZM446.44,171.83l-9.01.31c1.57,1.96,3.03,2.59,4.85,2.5,1.6-.08,2.91-1,4.16-2.81ZM287.54,179.54c.95-.02,2.32-2.16,1.84-2.74-.38-.47-1.74-1.46-2.38-1.44l-17.56.44.06,4.19,18.05-.45ZM170.87,199.16l52.09-1.03-.41-18.56-50.52,1.12c-9.92.22-19.33,3.06-27.97,7.47-9.31,4.75,17.03,11.21,26.81,11.01ZM-4.34,411.08c6.86-.15,11.86-3.48,14.85-8.15,3.35-5.24,3.35-11.04,1.14-16.72-17.48-44.87-31.23-104.76,25.82-126.24l-4.37-64.57-21.22.36c-6.01.1-11.77,1.06-17.52,2.94-30.18,9.87-58.7,27.11-77.99,52.6-11.39,15.05-16.9,31.94-19.76,50.55l-13.98,90.96c-1.62,10.57,6.2,20.53,17.29,20.3l95.74-2.03ZM66.32,259.33l-19.41,2.92c4.93,5.15,7.67,9.88,9.73,15.88,8.85,23.56,20.59,44.55,47.35,50.34,30.43,6.59,67.92-.51,88.11-26.12,10.36-13.14,14-29.66,11.91-46.2-.82-6.47-.02-12.23,3.27-17.87l-19.28,2.9c4.76,6.9,7.08,12.9,6.93,20.37,2.2,29.64-18.65,50.21-46.08,56.98-14.21,3.51-28.84,3.93-43.11.74-19.7-4.4-29.09-18.43-36.73-35.55-3.48-7.79-4.33-15.8-2.7-24.4ZM72.68,282.55c7.47,16.45,16.3,29.69,35.63,33.38,22.29,4.25,48.03.56,66-14.11,12.26-10,17.97-24.7,16.94-40.43-.48-7.36-2.51-14.48-8.44-19.46l-72.7,10.83c-6.89,14.56-8.66,30.51,3.53,42.78,3.42,3.44,2.85,8.87-.55,11.65-3.53,2.88-8.19,2.12-11.33-1.28-13.53-14.65-15.21-31.32-9.84-50.35l-19.24,2.77c-5.58.8-3.33,16.9-.01,24.22ZM110.76,298.03c-12.9-13.05-11.41-28.44-5.55-44.46l-8.88,1.29c-6.04,17.98-4.74,35.2,8.94,49.03,1.58,1.6,4.59,1.39,5.9-.14,1.19-1.39,1.14-4.15-.41-5.72Z"/>
  </g>
</svg>