<?xml version="1.0" encoding="UTF-8"?>
<svg id="Capa_1" data-name="Capa 1" xmlns="http://www.w3.org/2000/svg" viewBox="0 0 600 400">
  <path d="M128.84,306.68c2.46,6.25,2.34,12.18-1.15,17.56-3.25,5-8.65,7.9-15.27,8.05l-78.02,1.76c-11.25.25-20.49-8.64-18.72-20.2l11.52-75.54c2.51-16.46,7.49-31.42,17.64-44.62,15.7-20.42,37.08-33.73,61.13-42.56,3.97-5.44,9.39-9.25,16.04-10.93.82-1.22,1.18-3.23,1.11-5.11-8.24-4.65-14.08-11.79-18.62-20.17-1.33-2.46-2.65-5.25-5.09-6.53-3.06-1.61-5.58-3.49-6.46-7-.52-2.07.02-4.76,1.11-6.21,3.72-4.95,12.37-3.14,17.14,3.2,3.82,5.08,8.29,9.43,14.23,12.01,4.96,2.16,11.2,3.66,16.33,1.47l10.01-4.26c5.81-9.04,14.05-15.54,24.05-19.72-1.76-1.51-2.71-2.99-2.51-4.97.38-3.71,3.08-7.04,7.39-7.13l141.39-3.13,17.42,7.43,200.52-4.43c1.42-4.84,4.79-8.96,10.07-9.61,5.75-.71,10.71,3.3,12.06,9.04l16.36-.23c2.65-.04,5.4,2.39,5.47,5.18l.55,21.37c.1,4-2.64,6.43-6.48,6.51l-50.55,1.11c1.73,9.98-4.28,19.99-14.48,20.3l-21.88.65c-1.24,3.5-3.73,5.59-7.12,5.75-3.59.17-6.31-1.82-7.84-5.41l-116.25,2.59c.09,2.2-.04,4.15-.93,5.21-1.05,1.24-3.22,1.78-4.96,1.81l-14.15.27c-2.41,24.14-21.11,41.86-44.99,44.46-4.65,1.49-6.5,8.41-5.94,13.01,1.7,14.04.02,27.58-7.82,39.42-16.56,25.02-50.46,32.3-78.36,26.64-13.06-2.65-23.66-10.09-31.03-21.02-5.34-7.91-8.72-16.35-12.19-25.27-1.73-4.45-4.6-8.95-9.22-11.14-7.82,1.95-15.02,6.43-20.87,12.11-22.49,21.87-10.82,62.46-.64,88.29ZM558.75,75.16c-.83-3.64-3.99-5.89-7.22-6.03-3.47-.15-6.31,2.32-7.15,6.28l14.37-.26ZM193.45,83.59l135.91-4.06c-2.62-1.45-5.19-2.54-8.31-3.7l-140.29,3.12c-3.18.07-4.87,3.17-3.96,5.61,5.81.53,10.9-.8,16.64-.97ZM579.11,104.7c1.13-.54,2.26-1.72,2.24-2.58l-.46-21.32c-.03-1.51-1.28-2.78-3.02-2.82l-238.6,5.26.58,26.74,239.24-5.29ZM190.81,87.17c-13.34,1.81-24.24,7.8-32.48,16.92-7.84,9.55-12.93,20.89-11.95,33.69l4.94,64.87,115.09-17.16,30.04-4.36c23.76-3.45,41.1-23.13,40.45-47.27l-1.37-50.59-33.83.81c1.56,2.69,2.51,5.01,2.58,7.98l1.23,55.02c.14,6.16-3.66,11.99-10.49,12.15l-92.49,2.09c-6.41.15-11.91-3.89-12.07-10.56l-1.3-54.93c-.07-3.04.86-5.57,1.63-8.65ZM297.48,133.85c1.23,0,3.27-.65,4.45-1.07-7.05-.18-13.6-.22-20.47.17-8.01.46-15.8.35-23.98.4-6.46.04-26.97-3.13-26.73-10.32.23-6.97,20.64-11.06,27.46-11.22l42.74-1.01c.61-.01.39-2.46-.21-2.45l-43.88.86c-5.83.11-26.19-3.17-26.65-10.1-.45-6.78,19.51-11.19,24.78-11.33l43.81-1.2c-.85-1.25-2.46-2.43-3.93-2.38l-97.75,3.12c-2.74.09-4.78,4.24-4.73,6.57l1.27,56.85c.1,4.46,4.07,7.43,8.2,7.34l51.25-1.06,14.07-.29,26.59-.33c.77,0,2.38-.71,3.18-1.15-3.89-.1-7.23.22-10.92.28l-26.02.41c-8.95.14-17.75-1.46-25.67-5.59-1.53-.8-2.94-2.87-3.07-4.3-.12-1.29,1.19-3.7,2.62-4.54,9.2-5.38,19.72-7.54,30.47-6.91,1.75.1,4.03-.58,5.65-.59l27.49-.15ZM257.13,106.05l44.01-.86-.39-15.41-40.78.84c-8.83.18-17.35,2.15-24.99,6.4s14.94,9.17,22.15,9.03ZM112.7,148.61c3.46-.48,6.83-1.39,10.34-1.49l20.66-.58c-1.6-12.16-.22-23.46,4.99-34.15l-5.34,2.36c-5.67,2.5-12.45,1.32-18.11-.97-16.11-6.53-15.59-18.55-25.54-18.22-2.3.08-4.16,1.99-3.76,4.43.92,5.6,6.43,4.32,9.56,10.14,5.58,10.39,10.65,18.24,21.9,23.38l-2.5,9.33c-4.87.95-8.7,2.5-12.2,5.76ZM512.06,126.3c9.09-.2,14.14-9.38,12.02-16.85l-184.21,4.07.46,16.61,171.73-3.83ZM258.39,130.3l43.46-.87-.39-15.42-45.83,1.17c-4.81.12-20.83,4.32-21.59,7.84-.75,3.48,17.53,7.41,24.35,7.27ZM487.44,130.22l-7.49.25c1.3,1.63,2.52,2.15,4.03,2.08,1.33-.06,2.42-.83,3.46-2.33ZM355.36,136.64c.79-.02,1.93-1.79,1.53-2.28-.32-.39-1.44-1.21-1.98-1.2l-14.6.37.05,3.48,15-.38ZM258.39,152.94l43.3-.86-.34-15.43-41.99.93c-8.25.18-16.07,2.54-23.25,6.21-7.74,3.95,14.16,9.31,22.28,9.15ZM112.76,329.09c5.7-.12,9.86-2.9,12.34-6.78,2.78-4.35,2.79-9.18.95-13.89-14.53-37.29-25.95-87.07,21.46-104.93l-3.63-53.67-17.64.3c-4.99.08-9.79.88-14.56,2.44-25.09,8.21-48.79,22.54-64.82,43.72-9.47,12.51-14.05,26.55-16.42,42.01l-11.62,75.61c-1.35,8.78,5.15,17.07,14.37,16.87l79.57-1.69ZM171.49,202.95l-16.13,2.43c4.1,4.28,6.37,8.21,8.09,13.2,7.36,19.58,17.12,37.03,39.36,41.84,25.29,5.47,56.45-.42,73.23-21.71,8.61-10.92,11.63-24.65,9.9-38.4-.68-5.38-.01-10.16,2.72-14.86l-16.02,2.41c3.95,5.74,5.88,10.72,5.76,16.93,1.83,24.64-15.5,41.74-38.3,47.36-11.81,2.91-23.97,3.26-35.83.62-16.38-3.66-24.18-15.32-30.53-29.55-2.89-6.48-3.6-13.13-2.24-20.28ZM176.77,222.25c6.2,13.68,13.55,24.68,29.62,27.74,18.52,3.53,39.92.47,54.86-11.73,10.19-8.31,14.93-20.53,14.08-33.6-.4-6.12-2.09-12.04-7.01-16.18l-60.43,9c-5.73,12.1-7.2,25.36,2.93,35.56,2.84,2.86,2.37,7.37-.46,9.68s-6.81,1.76-9.41-1.06c-11.25-12.18-12.64-26.03-8.18-41.85l-15.99,2.3c-4.64.67-2.77,14.05,0,20.13ZM208.43,235.12c-10.72-10.84-9.49-23.64-4.61-36.96l-7.38,1.07c-5.02,14.94-3.94,29.26,7.43,40.75,1.31,1.33,3.82,1.15,4.9-.11.99-1.15.95-3.45-.34-4.75Z"/>
  <path d="M76.21,256.68c6.27-1.64,11.92,2.28,13.28,8.03,1.3,5.5-2.15,11.26-7.55,12.76-5.84,1.62-11.79-1.74-13.36-7.47s1.38-11.69,7.63-13.32ZM76.24,260.01c-4.35,1.66-5.8,6.35-4.33,9.92,1.62,3.93,5.98,5.76,9.95,4.19,3.61-1.42,5.57-5.7,4.36-9.33-1.34-4.03-5.63-6.45-9.98-4.78Z"/>
</svg>