<?xml version="1.0" encoding="UTF-8"?>
<svg id="Capa_1" data-name="Capa 1" xmlns="http://www.w3.org/2000/svg" xmlns:xlink="http://www.w3.org/1999/xlink" viewBox="0 0 600 400">
  <defs>
    <style>
      .cls-1 {
        fill: none;
      }

      .cls-2 {
        clip-path: url(#clippath-1);
      }

      .cls-3 {
        clip-path: url(#clippath-2);
      }

      .cls-4 {
        clip-path: url(#clippath);
      }
    </style>
    <clipPath id="clippath">
      <rect class="cls-1" x="65.24" y="45.58" width="469.53" height="308.85"/>
    </clipPath>
    <clipPath id="clippath-1">
      <rect class="cls-1" x="751.93" y="30.44" width="416.13" height="339.12" transform="translate(1920 400) rotate(-180)"/>
    </clipPath>
    <clipPath id="clippath-2">
      <rect class="cls-1" x="678.55" y="-430.51" width="562.89" height="264.53" transform="translate(1920 -596.48) rotate(-180)"/>
    </clipPath>
  </defs>
  <g class="cls-4">
    <g>
      <path d="M-9.76,256.79c-1.71-.95-1.85-4.43-.83-5.87,12.8-18.12,34.56-47.63,39.76-67.81,2.06-7.98-2.38-15.06-10.11-17.49-9.62-3.02-20.31-3.94-30.64-2.97l-28.4,2.66-6.12-24c-42.24-12.35-35.81,37.32-53.46,68.99-3.91,7.01-11.77,10.3-19.27,7.43-6.92-2.64-13.07-6.64-19.01-11.74,7.93-18.5,11.49-36.75,12.06-56.67l1.29-44.87c25.34-11.43,52.82-5.5,79.31-2.94l5.47,5.05,17.02-21.07,37.48-1.48,7.86-18.24,30.75,2.2,3.17,14.27,307.56.55.95-23.53c5.94-1.02,11.77-1.32,18.27-.84l7.32,40.64,132.52,2.41-.14,45-132.08-.81-5.87,11.15-182.94-.64c-1.32-2-2.65-4.52-3.64-6.68-.74-1.6-5.79-.62-6.48,1.19,6.37,49.34,11.98,86.95,35.68,131.03l16.17,30.08-31.19,21.4c-19.33-31-40.13-68.33-47.77-102.48l-9.46-42.31-20.09.77c-2.97,9.62-5.49,17.52-9.98,25.55-10.67,19.07-31.17,11.91-48.16,6.89-2.97-.88-6.8-1.1-9.98-.33l-27.58,62.97-49.45-27.44ZM161.21,180.61l27.11-6.81-2.72-19.82c-.39-2.88.64-8.34,3.01-9.73,2.25-1.32,5.8-2.06,9.52-2.81l-.63-42.35,186.47.61-6.13-34.64-6.2.3-1.22,24.07-320.1-.28-70.16,2.86c-19.82,27.86-16.01,11.38-19.37,47.83l191.17,2.8,9.25,37.97ZM49.35,82.39l-1.58-8.31-21.17-1.33-4.03,10.78,26.78-1.14ZM-58.96,132.97l13.51,1.16,1.82-20.19c.3-3.36-5.4-6.44-8.28-6.68l-34.96-2.94c-6.15-.52-12.61.49-18.91,1.42l-1.42,57.99c-.41,16.55-4.66,31.4-12.22,45.99,28.25,18.12,17.63-80.43,60.46-76.74ZM385.77,139.35l-.39-32.88-181.44-.81,1.38,43.82,175.32.67c1.62-2.66,5.16-7.64,5.13-10.8ZM516.66,139.83l.05-31.9-124.6-2.08.45,33.09,124.09.89ZM-124.95,205.2c15.04-25.69,11.57-67.32,12.34-97.05l-4.47.54c-.98.12-.99,2.89-1.02,4.15-.63,32.21.22,57.86-10.53,87.89-.33.91-.36,3.21-.31,4.16.04.72,3.4,1.31,3.98.32ZM84.01,183.92l70.41-2.26-7.54-32.45-184.05-2.68c.38,4.2,1.25,8.12,2.32,11.6,20.7-2.06,67.64-9.43,71.29,19.42.91,6.8,41.77,6.56,47.56,6.37ZM235.12,309.2c-26.73-46.04-37.69-75.76-45.72-128.23l-7.28,1.47c4.76,23.38,9.15,45.7,17.45,68.18,8.17,22.14,19.45,41.3,31.48,61.89l4.08-3.3ZM214.91,324.06l10.65-7.69c-12.81-21.93-25.05-42.79-33.43-66.64-7.59-21.59-11.69-42.49-16.54-65.52l-13.49,3.23,8.64,39.03c7.61,34.41,25.78,67.26,44.17,97.6ZM36.56,275.08l36.58-84.42c-13.98-.54-25.56-.95-37.56-4.3-8.56,24.06-23.85,43.84-39.13,66.22l40.11,22.51ZM71.14,213.28l27.82,7.15c20.28,3.1,24.18-15.2,29.18-31.16l-26.48,1.11c-7.88,10.22-1.18,20-4.17,26.16-.41.84-3.45.17-4.21-.57-6.48-6.26-9.42-15.93-11.56-26.24-4.81,8.25-8.07,16.04-10.58,23.54Z"/>
      <path d="M163.12,135.7l-179.3.06c-1.67-5.8-1.55-11.09-.37-17.77h179.51c.89,6.32.92,10.33.16,17.72ZM153.66,129.11c1.81,0,3.57-1.77,3.8-2.26s-1.27-2.3-4.35-2.3c-45,0-109.23,0-160.65-.01-1.76,0-3.77,1.46-3.44,2.26.33.8,2.09,2.32,4,2.32h160.64Z"/>
    </g>
  </g>
  <g class="cls-2">
    <path d="M918.22,360.29l-38.12-87.03c-4.39-1.05-9.68-.75-13.79.46-23.48,6.94-51.82,16.83-66.56-9.52-6.21-11.1-9.69-22.02-13.8-35.32l-27.77-1.06-13.07,58.47c-10.55,47.2-39.3,98.78-66.02,141.63l-43.11-29.57,22.35-41.57c32.75-60.92,40.51-112.91,49.31-181.1-.95-2.5-7.94-3.85-8.96-1.64-1.37,2.98-3.21,6.46-5.03,9.23l-252.84.88-8.11-15.4-182.55,1.12-.19-62.2,183.16-3.33,10.11-56.16c8.98-.67,17.04-.26,25.25,1.15l1.32,32.52,425.08-.77,4.39-19.73,42.5-3.04,10.86,25.21,51.8,2.05,23.53,29.12,7.56-6.97c36.61-3.54,74.59-11.73,109.62,4.07l1.79,62.02c.79,27.52,5.71,52.75,16.67,78.32-8.21,7.04-16.72,12.57-26.28,16.22-10.37,3.96-21.23-.58-26.63-10.27-24.39-43.77-15.51-112.42-73.89-95.35l-8.46,33.17-39.25-3.67c-14.27-1.33-29.04-.07-42.34,4.11-10.69,3.36-16.82,13.14-13.98,24.17,7.19,27.89,37.26,68.68,54.96,93.72,1.41,1.99,1.21,6.8-1.15,8.11l-68.35,37.93ZM763.06,164.6l264.22-3.88c-4.65-50.37.63-27.59-26.77-66.1l-96.96-3.95-442.42.39-1.68-33.27-8.57-.41-8.48,47.88,257.73-.85-.88,58.53c5.13,1.04,10.05,2.06,13.15,3.88,3.28,1.92,4.7,9.47,4.16,13.44l-3.75,27.39,37.46,9.41,12.79-52.48ZM941.89,82.9l-5.57-14.9-29.26,1.84-2.19,11.49,37.02,1.57ZM1138.13,257.3c-10.45-20.17-16.33-40.69-16.89-63.56l-1.96-80.15c-8.7-1.28-17.64-2.68-26.13-1.97l-48.31,4.07c-3.98.34-11.86,4.59-11.45,9.24l2.51,27.91,18.67-1.61c59.2-5.09,44.52,131.11,83.57,106.07ZM446.99,174.97l242.31-.93,1.91-60.56-250.77,1.12-.53,45.44c-.05,4.37,4.84,11.26,7.09,14.93ZM430.5,159.48l.62-45.74-172.21,2.88.07,44.09,171.51-1.23ZM1151.28,250.62c.07-1.3.02-4.48-.43-5.74-14.86-41.5-13.68-76.96-14.55-121.48-.03-1.75-.05-5.57-1.4-5.73l-6.17-.74c1.07,41.1-3.74,98.63,17.05,134.14.8,1.37,5.45.55,5.51-.44ZM922.7,212.85c5.05-39.88,69.93-29.69,98.53-26.84,1.49-4.8,2.69-10.22,3.21-16.03l-254.38,3.71-10.42,44.85,97.31,3.12c8,.26,64.48.59,65.74-8.81ZM653.75,399.37c16.63-28.46,32.22-54.95,43.51-85.54,11.46-31.07,17.53-61.92,24.11-94.23l-10.06-2.03c-11.1,72.52-26.26,113.61-63.2,177.23l5.64,4.57ZM737.1,280.44l11.94-53.94-18.64-4.47c-6.7,31.84-12.38,60.72-22.86,90.56-11.58,32.96-28.5,61.8-46.2,92.11l14.72,10.63c25.41-41.92,50.52-87.33,61.05-134.89ZM977.98,316.53c-21.12-30.93-42.25-58.26-54.08-91.52-16.58,4.64-32.59,5.21-51.92,5.95l50.56,116.68,55.44-31.11ZM860.13,229.68c-2.95,14.25-7.02,27.62-15.97,36.27-1.05,1.02-5.26,1.95-5.82.78-4.12-8.52,5.13-22.03-5.76-36.15l-36.6-1.54c6.91,22.06,12.3,47.35,40.33,43.07l38.44-9.89c-3.47-10.37-7.97-21.14-14.62-32.54Z"/>
  </g>
  <g class="cls-3">
    <path d="M-139.07-390.21c.57-.03,1.91-.3,2.91-.31l169.06-.63c295.67-1.1,590.67,6.31,886.36,9.28l142.95,1.44,46.71-.87c5.32-.1,10.17-.99,15.42-2.12,6.39-1.37,3.86-9.87,13.49-15.54,7.44-4.38,15.35-8.35,23.71-10.02,5.42-1.08,17.89-1.98,21,2.97,6.05,9.61-29.41,38.5-9.68,46.99,28.64,12.32,48.46,32.8,68.58,56.17l30.55,35.48c12.02,2.88,23.49,2.52,35.46-.34,17.4-4.15,33.55-10.85,49.96-18.08,11.91-5.24,24.63-5.43,36.83-1.34l44.76,15c64.56,21.64,130.07,38.67,196.33,54.66l68.88,16.62c12.1,2.92,23.38,6.15,35.09,9.96l7.35,2.39,2.77,3.46c6.09,14.6-1.76,46.3-6.48,62.05-10.16,33.88-22.22,66.86-37.73,98.66-5.02,10.3-11.6,19.16-17.38,28.95-5.08,8.6-10.84,16.27-16.36,24.06l-6.43,5.14c-3.22.15-6.27-.1-9.73-1.61-42.1-18.4-83.73-37.76-125.01-58.44-50.23-25.16-98.17-53.51-146.36-82.08l-35.53-21.07c-7.05-4.18-14.3-7.3-21.94-10.22-24.98-9.52-45.43-5.74-70.57-1.32-14.27,2.51-23.94-2.27-29.23-16.36l-8.03-21.4c-7.45-19.87-20.64-36.37-39.19-46.75l-16.6-9.28c-4.81-2.69-9.59-.41-11.75,4.15-2.04,4.3-3.24,9.28-5.86,13.35-7.34,11.39-17.68,20.55-29.61,26.91-32.94,17.55-70.65,4.46-89.65-26.73-4.72-7.75-6.5-22.63-12.49-22.51l-158.87,3.15c-13.48.27-26.2.92-39.48-.03-5.53-.39-18.53-1.46-17.24-8.75,1.61-9.08-16.45-6.64-23.31-6.71l-322.44-3.2-481.29-7.19-36.03-.92c-5.51-.14-8.75-3.26-8.96-8.58l-1.03-26.45-.06-12.32c-.02-4.67-3.15-6.57-7.24-6.68l-40.85-1.09c-5.18-.14-9.78-1.47-14.26-3.17l-3.31-4.15c-.48-4.77-.73-9.54-.41-14.68.94-14.93.43-29.43-1.31-44.27l.6-3.27,2.97-2.37ZM805.07-322.05l-.9-2.04c-.55-1.25-.24-3.11-.11-4.77l2.39-30.94c.17-2.22-.2-6.26-2.79-6.93l-144.53-1.47-192.93-2.1-256.8-2.25-335.67-5.51c-1.65,15.42-.47,30.32,3.06,45.4,17.13,1.08,33.28,1.11,49.94.84l43.85.18,198.33,2.62,361.69,5.38,180.99,3,72.34.71c1.55.02,22.05-.08,21.14-2.12ZM777.23-263.72c5.34-.02,27.41-.92,27.33-7.12-.11-8.3-7.19-15.17-1.5-30.15l-229.16-3.95-247.87-4.51-351.77-6.83c-14.49-.28-28.64-.33-43.1.15.71,2.21,1.15,3.33,1.22,4.61l1.31,24.99c.28,5.43,1.15,10.29,2.81,15.81,9.34.7,17.86.79,27.04.67l29.89-.39c173.03-2.27,345.64,1.21,518.84,3.86l199.9,3.06,65.07-.19ZM1123.32-257.42l2.58-99.06c-.32-6.14-27.39-7.36-32.5-7.58-21.51-.91-42.57-.53-64.09-.15-9.66.17-18.56.53-28.26-.19l-94.69-1.44-88.19-.6-2.16,89.06c-.19,7.95-.28,15.1.16,22.93.93,2.79,1.8,6.67,4.96,7.48,3.77.96,8.01.6,11.86.07,10.55-1.45,20.34-1.51,31.09-1.66l130.18-1.82,123.49-3.23c2.16-.06,5.51-1.63,5.56-3.81ZM1170.8-399.72c.23-.41.72-1.94.37-1.92s-1.72-.07-2.19.19l-22.45,12.15c-5.37,2.91-10.91,6.49-12.73,12.12-.65,3.12,3.95,4.73,6.3,5.42l16.91,5.01c2.44-13.48,7.35-21.51,13.79-32.96ZM1739.54-166.14c.56-4.08.34-8.06-.95-12.4l-130.61-30.05-117.95-31.42-68.97-20.14c-12.42-3.63-39.2-15-51.55-12.12-10.16,2.37-19.42,6.26-29.28,9.48-17.15,5.61-35.44,11.47-53.57,10.06-15-1.16-28.57-8.82-36.65-22.02-11.23-18.35-24.56-34.08-41.91-47.14-20.26-15.25-42.7-25.93-66.97-33.09-1.18-.35-3.01-.66-3.68-.09-2.07,1.77-.23,10.1-.55,17.19l-1.91,42.87c-.6,13.55-1.03,26.63-.3,40.32,38.79,5.77,69.31,23.18,89.14,57.17,7.38,12.64,12.22,25.56,16.06,39.88,8.69.12,17.02-.76,25.55-2.05,12.22-1.85,42.78-7.96,54.13-2.03l124.17,64.77c65.07,33.94,128.53,70,191.89,106.64,6.2,3.58,11.82,6.4,18.09,8.99,2.73,1.13,5.75,0,6.83-2.57,2.23-5.28,6.03-8.71,9.51-13.06,30.66-38.35,62.82-120.45,69.45-169.2ZM1137.83-239.84c-2.57-1.52-8.48-2.02-9.3.3-3.6,10.11-9.13,18.31-17.61,24.65-12.2,9.11-27.88,11.19-40.96,7.12-15.61-4.86-25.92-16.69-30.9-31.59-1.97-1.46-6.03-2.08-8.25-.57-1.38.93-1.26,4.56-.53,6.21,12.28,27.86,36.89,48.65,68.21,37.42,14.58-5.22,27.12-14.61,36.14-27.32,2.64-3.72,7.67-13.59,3.2-16.23ZM1100.24-228.35c-3.87,7.49-12,9.6-19.73,8.86-5.73-.55-10.31-3.39-12.32-9.05l-2.76-7.79c-1.2-3.38-4.48-5.05-7.83-4.82l-7.32.5c-14.7,1.01,14.42,31.72,44.4,23.76,14.61-3.88,33.14-21.24,23.74-25.43-2.81-1.25-9.78-2.3-11.51,1.04l-6.68,12.92ZM1098.6-241.49c-5.64-1.42-25.38-1.76-26.65,3.09-.52,1.97,7.79,12.78,17.81,8.24,4.49-2.04,7.81-6.1,8.84-11.32Z"/>
  </g>
</svg>