<?xml version="1.0" encoding="UTF-8"?>
<svg id="Capa_1" data-name="Capa 1" xmlns="http://www.w3.org/2000/svg" xmlns:xlink="http://www.w3.org/1999/xlink" viewBox="0 0 600 400">
  <defs>
    <style>
      .cls-1 {
        fill: none;
      }

      .cls-2 {
        clip-path: url(#clippath-1);
      }

      .cls-3 {
        clip-path: url(#clippath);
      }
    </style>
    <clipPath id="clippath">
      <rect class="cls-1" x="725.24" y="45.58" width="469.53" height="308.85"/>
    </clipPath>
    <clipPath id="clippath-1">
      <rect class="cls-1" x="1338.55" y="-430.51" width="562.89" height="264.53" transform="translate(3240 -596.48) rotate(-180)"/>
    </clipPath>
  </defs>
  <g>
    <path d="M430.18,275.35l-23.47-53.58c-2.7-.65-5.96-.46-8.49.28-14.46,4.27-31.9,10.36-40.98-5.86-3.82-6.83-5.97-13.56-8.5-21.74l-17.1-.66-8.05,36c-6.5,29.06-24.2,60.82-40.64,87.2l-26.54-18.21,13.76-25.59c20.16-37.51,24.94-69.51,30.36-111.49-.59-1.54-4.89-2.37-5.52-1.01-.85,1.84-1.98,3.98-3.1,5.68l-155.66.54-4.99-9.48-112.39.69-.12-38.29,112.76-2.05,6.23-34.58c5.53-.41,10.49-.16,15.55.71l.81,20.02,261.7-.47,2.7-12.14,26.16-1.87,6.69,15.52,31.89,1.26,14.49,17.93,4.65-4.29c22.54-2.18,45.92-7.22,67.49,2.5l1.1,38.18c.49,16.95,3.51,32.48,10.26,48.22-5.05,4.34-10.29,7.74-16.18,9.99-6.39,2.44-13.07-.36-16.4-6.32-15.02-26.95-9.55-69.21-45.49-58.7l-5.21,20.42-24.17-2.26c-8.78-.82-17.88-.04-26.07,2.53-6.58,2.07-10.36,8.09-8.6,14.88,4.43,17.17,22.94,42.29,33.83,57.7.87,1.23.75,4.19-.71,4.99l-42.08,23.35ZM334.65,154.87l162.67-2.39c-2.86-31.01.39-16.99-16.48-40.69l-59.7-2.43-272.38.24-1.04-20.48-5.28-.25-5.22,29.48,158.67-.52-.54,36.04c3.16.64,6.18,1.27,8.1,2.39,2.02,1.18,2.9,5.83,2.56,8.28l-2.31,16.87,23.06,5.79,7.87-32.31ZM444.75,104.57l-3.43-9.17-18.02,1.13-1.35,7.07,22.79.97ZM565.57,211.95c-6.43-12.42-10.05-25.05-10.4-39.13l-1.21-49.34c-5.35-.79-10.86-1.65-16.09-1.21l-29.74,2.51c-2.45.21-7.3,2.83-7.05,5.69l1.54,17.18,11.5-.99c36.45-3.13,27.41,80.72,51.45,65.3ZM140.06,161.26l149.18-.57,1.17-37.29-154.39.69-.33,27.98c-.03,2.69,2.98,6.93,4.36,9.19ZM129.91,151.72l.38-28.16-106.02,1.77.05,27.14,105.59-.76ZM573.66,207.84c.04-.8.02-2.76-.26-3.54-9.15-25.55-8.42-47.38-8.96-74.79-.02-1.08-.03-3.43-.86-3.53l-3.8-.46c.66,25.3-2.3,60.72,10.5,82.58.5.85,3.36.34,3.39-.27ZM432.94,184.58c3.11-24.55,43.05-18.28,60.66-16.53.92-2.96,1.66-6.29,1.98-9.87l-156.61,2.28-6.41,27.61,59.91,1.92c4.93.16,39.7.37,40.47-5.42ZM267.36,299.41c10.24-17.52,19.84-33.83,26.79-52.66,7.06-19.13,10.79-38.12,14.84-58.01l-6.2-1.25c-6.83,44.65-16.16,69.94-38.91,109.11l3.47,2.81ZM318.67,226.2l7.35-33.21-11.48-2.75c-4.13,19.6-7.62,37.38-14.08,55.75-7.13,20.29-17.54,38.05-28.44,56.71l9.06,6.55c15.65-25.81,31.1-53.77,37.58-83.04ZM466.97,248.41c-13-19.04-26.01-35.87-33.3-56.34-10.21,2.86-20.07,3.21-31.96,3.66l31.13,71.83,34.13-19.15ZM394.41,194.94c-1.82,8.77-4.32,17.01-9.83,22.33-.65.63-3.24,1.2-3.59.48-2.54-5.24,3.16-13.56-3.54-22.26l-22.53-.95c4.25,13.58,7.57,29.15,24.83,26.51l23.67-6.09c-2.13-6.39-4.91-13.01-9-20.03Z"/>
    <path d="M325.29,133.89h152.75c1,5.69,1.1,10.19-.32,15.13l-152.57-.05c-.64-6.29-.62-9.7.14-15.08ZM469.89,143.36c1.63,0,3.12-1.29,3.41-1.97s-1.43-1.92-2.93-1.92c-43.75,0-98.41.01-136.7,0-2.62,0-3.89,1.55-3.7,1.96s1.69,1.92,3.23,1.92h136.69Z"/>
  </g>
  <g class="cls-3">
    <path d="M650.24,256.79c-1.71-.95-1.85-4.43-.83-5.87,12.8-18.12,34.56-47.63,39.76-67.81,2.06-7.98-2.38-15.06-10.11-17.49-9.62-3.02-20.31-3.94-30.64-2.97l-28.4,2.66-6.12-24c-42.24-12.35-35.81,37.32-53.46,68.99-3.91,7.01-11.77,10.3-19.27,7.43-6.92-2.64-13.07-6.64-19.01-11.74,7.93-18.5,11.49-36.75,12.06-56.67l1.29-44.87c25.34-11.43,52.82-5.5,79.31-2.94l5.47,5.05,17.02-21.07,37.48-1.48,7.86-18.24,30.75,2.2,3.17,14.27,307.56.55.95-23.53c5.94-1.02,11.77-1.32,18.27-.84l7.32,40.64,132.52,2.41-.14,45-132.08-.81-5.87,11.15-182.94-.64c-1.32-2-2.65-4.52-3.64-6.68-.74-1.6-5.79-.62-6.48,1.19,6.37,49.34,11.98,86.95,35.68,131.03l16.17,30.08-31.19,21.4c-19.33-31-40.13-68.33-47.77-102.48l-9.46-42.31-20.09.77c-2.97,9.62-5.49,17.52-9.98,25.55-10.67,19.07-31.17,11.91-48.16,6.89-2.97-.88-6.8-1.1-9.98-.33l-27.58,62.97-49.45-27.44ZM821.21,180.61l27.11-6.81-2.72-19.82c-.39-2.88.64-8.34,3.01-9.73,2.25-1.32,5.8-2.06,9.52-2.81l-.63-42.35,186.47.61-6.13-34.64-6.2.3-1.22,24.07-320.1-.28-70.16,2.86c-19.82,27.86-16.01,11.38-19.37,47.83l191.17,2.8,9.25,37.97ZM709.35,82.39l-1.58-8.31-21.17-1.33-4.03,10.78,26.78-1.14ZM601.04,132.97l13.51,1.16,1.82-20.19c.3-3.36-5.4-6.44-8.28-6.68l-34.96-2.94c-6.15-.52-12.61.49-18.91,1.42l-1.42,57.99c-.41,16.55-4.66,31.4-12.22,45.99,28.25,18.12,17.63-80.43,60.46-76.74ZM1045.77,139.35l-.39-32.88-181.44-.81,1.38,43.82,175.32.67c1.62-2.66,5.16-7.64,5.13-10.8ZM1176.66,139.83l.05-31.9-124.6-2.08.45,33.09,124.09.89ZM535.05,205.2c15.04-25.69,11.57-67.32,12.34-97.05l-4.47.54c-.98.12-.99,2.89-1.02,4.15-.63,32.21.22,57.86-10.53,87.89-.33.91-.36,3.21-.31,4.16.04.72,3.4,1.31,3.98.32ZM744.01,183.92l70.41-2.26-7.54-32.45-184.05-2.68c.38,4.2,1.25,8.12,2.32,11.6,20.7-2.06,67.64-9.43,71.29,19.42.91,6.8,41.77,6.56,47.56,6.37ZM895.12,309.2c-26.73-46.04-37.69-75.76-45.72-128.23l-7.28,1.47c4.76,23.38,9.15,45.7,17.45,68.18,8.17,22.14,19.45,41.3,31.48,61.89l4.08-3.3ZM874.91,324.06l10.65-7.69c-12.81-21.93-25.05-42.79-33.43-66.64-7.59-21.59-11.69-42.49-16.54-65.52l-13.49,3.23,8.64,39.03c7.61,34.41,25.78,67.26,44.17,97.6ZM696.56,275.08l36.58-84.42c-13.98-.54-25.56-.95-37.56-4.3-8.56,24.06-23.85,43.84-39.13,66.22l40.11,22.51ZM731.14,213.28l27.82,7.15c20.28,3.1,24.18-15.2,29.18-31.16l-26.48,1.11c-7.88,10.22-1.18,20-4.17,26.16-.41.84-3.45.17-4.21-.57-6.48-6.26-9.42-15.93-11.56-26.24-4.81,8.25-8.07,16.04-10.58,23.54Z"/>
  </g>
  <g class="cls-2">
    <path d="M520.93-390.21c.57-.03,1.91-.3,2.91-.31l169.06-.63c295.67-1.1,590.67,6.31,886.36,9.28l142.95,1.44,46.71-.87c5.32-.1,10.17-.99,15.42-2.12,6.39-1.37,3.86-9.87,13.49-15.54,7.44-4.38,15.35-8.35,23.71-10.02,5.42-1.08,17.89-1.98,21,2.97,6.05,9.61-29.41,38.5-9.68,46.99,28.64,12.32,48.46,32.8,68.58,56.17l30.55,35.48c12.02,2.88,23.49,2.52,35.46-.34,17.4-4.15,33.55-10.85,49.96-18.08,11.91-5.24,24.63-5.43,36.83-1.34l44.76,15c64.56,21.64,130.07,38.67,196.33,54.66l68.88,16.62c12.1,2.92,23.38,6.15,35.09,9.96l7.35,2.39,2.77,3.46c6.09,14.6-1.76,46.3-6.48,62.05-10.16,33.88-22.22,66.86-37.73,98.66-5.02,10.3-11.6,19.16-17.38,28.95-5.08,8.6-10.84,16.27-16.36,24.06l-6.43,5.14c-3.22.15-6.27-.1-9.73-1.61-42.1-18.4-83.73-37.76-125.01-58.44-50.23-25.16-98.17-53.51-146.36-82.08l-35.53-21.07c-7.05-4.18-14.3-7.3-21.94-10.22-24.98-9.52-45.43-5.74-70.57-1.32-14.27,2.51-23.94-2.27-29.23-16.36l-8.03-21.4c-7.45-19.87-20.64-36.37-39.19-46.75l-16.6-9.28c-4.81-2.69-9.59-.41-11.75,4.15-2.04,4.3-3.24,9.28-5.86,13.35-7.34,11.39-17.68,20.55-29.61,26.91-32.94,17.55-70.65,4.46-89.65-26.73-4.72-7.75-6.5-22.63-12.49-22.51l-158.87,3.15c-13.48.27-26.2.92-39.48-.03-5.53-.39-18.53-1.46-17.24-8.75,1.61-9.08-16.45-6.64-23.31-6.71l-322.44-3.2-481.29-7.19-36.03-.92c-5.51-.14-8.75-3.26-8.96-8.58l-1.03-26.45-.06-12.32c-.02-4.67-3.15-6.57-7.24-6.68l-40.85-1.09c-5.18-.14-9.78-1.47-14.26-3.17l-3.31-4.15c-.48-4.77-.73-9.54-.41-14.68.94-14.93.43-29.43-1.31-44.27l.6-3.27,2.97-2.37ZM1465.07-322.05l-.9-2.04c-.55-1.25-.24-3.11-.11-4.77l2.39-30.94c.17-2.22-.2-6.26-2.79-6.93l-144.53-1.47-192.93-2.1-256.8-2.25-335.67-5.51c-1.65,15.42-.47,30.32,3.06,45.4,17.13,1.08,33.28,1.11,49.94.84l43.85.18,198.33,2.62,361.69,5.38,180.99,3,72.34.71c1.55.02,22.05-.08,21.14-2.12ZM1437.23-263.72c5.34-.02,27.41-.92,27.33-7.12-.11-8.3-7.19-15.17-1.5-30.15l-229.16-3.95-247.87-4.51-351.77-6.83c-14.49-.28-28.64-.33-43.1.15.71,2.21,1.15,3.33,1.22,4.61l1.31,24.99c.28,5.43,1.15,10.29,2.81,15.81,9.34.7,17.86.79,27.04.67l29.89-.39c173.03-2.27,345.64,1.21,518.84,3.86l199.9,3.06,65.07-.19ZM1783.32-257.42l2.58-99.06c-.32-6.14-27.39-7.36-32.5-7.58-21.51-.91-42.57-.53-64.09-.15-9.66.17-18.56.53-28.26-.19l-94.69-1.44-88.19-.6-2.16,89.06c-.19,7.95-.28,15.1.16,22.93.93,2.79,1.8,6.67,4.96,7.48,3.77.96,8.01.6,11.86.07,10.55-1.45,20.34-1.51,31.09-1.66l130.18-1.82,123.49-3.23c2.16-.06,5.51-1.63,5.56-3.81ZM1830.8-399.72c.23-.41.72-1.94.37-1.92s-1.72-.07-2.19.19l-22.45,12.15c-5.37,2.91-10.91,6.49-12.73,12.12-.65,3.12,3.95,4.73,6.3,5.42l16.91,5.01c2.44-13.48,7.35-21.51,13.79-32.96ZM2399.54-166.14c.56-4.08.34-8.06-.95-12.4l-130.61-30.05-117.95-31.42-68.97-20.14c-12.42-3.63-39.2-15-51.55-12.12-10.16,2.37-19.42,6.26-29.28,9.48-17.15,5.61-35.44,11.47-53.57,10.06-15-1.16-28.57-8.82-36.65-22.02-11.23-18.35-24.56-34.08-41.91-47.14-20.26-15.25-42.7-25.93-66.97-33.09-1.18-.35-3.01-.66-3.68-.09-2.07,1.77-.23,10.1-.55,17.19l-1.91,42.87c-.6,13.55-1.03,26.63-.3,40.32,38.79,5.77,69.31,23.18,89.14,57.17,7.38,12.64,12.22,25.56,16.06,39.88,8.69.12,17.02-.76,25.55-2.05,12.22-1.85,42.78-7.96,54.13-2.03l124.17,64.77c65.07,33.94,128.53,70,191.89,106.64,6.2,3.58,11.82,6.4,18.09,8.99,2.73,1.13,5.75,0,6.83-2.57,2.23-5.28,6.03-8.71,9.51-13.06,30.66-38.35,62.82-120.45,69.45-169.2ZM1797.83-239.84c-2.57-1.52-8.48-2.02-9.3.3-3.6,10.11-9.13,18.31-17.61,24.65-12.2,9.11-27.88,11.19-40.96,7.12-15.61-4.86-25.92-16.69-30.9-31.59-1.97-1.46-6.03-2.08-8.25-.57-1.38.93-1.26,4.56-.53,6.21,12.28,27.86,36.89,48.65,68.21,37.42,14.58-5.22,27.12-14.61,36.14-27.32,2.64-3.72,7.67-13.59,3.2-16.23ZM1760.24-228.35c-3.87,7.49-12,9.6-19.73,8.86-5.73-.55-10.31-3.39-12.32-9.05l-2.76-7.79c-1.2-3.38-4.48-5.05-7.83-4.82l-7.32.5c-14.7,1.01,14.42,31.72,44.4,23.76,14.61-3.88,33.14-21.24,23.74-25.43-2.81-1.25-9.78-2.3-11.51,1.04l-6.68,12.92ZM1758.6-241.49c-5.64-1.42-25.38-1.76-26.65,3.09-.52,1.97,7.79,12.78,17.81,8.24,4.49-2.04,7.81-6.1,8.84-11.32Z"/>
  </g>
</svg>