<?xml version="1.0" encoding="UTF-8"?>
<svg id="Capa_1" data-name="Capa 1" xmlns="http://www.w3.org/2000/svg" viewBox="0 0 600 400">
  <path d="M127.74,252c-1.45-.81-1.57-3.77-.71-4.99,10.89-15.41,29.41-40.53,33.83-57.7,1.75-6.79-2.02-12.82-8.6-14.88-8.19-2.57-17.28-3.35-26.07-2.53l-24.17,2.26-5.21-20.42c-35.94-10.51-30.47,31.76-45.49,58.7-3.33,5.97-10.01,8.76-16.4,6.32-5.89-2.25-11.12-5.65-16.18-9.99,6.75-15.74,9.78-31.27,10.26-48.22l1.1-38.18c21.56-9.73,44.95-4.68,67.49-2.5l4.65,4.29,14.49-17.93,31.89-1.26,6.69-15.52,26.16,1.87,2.7,12.14,261.7.47.81-20.02c5.06-.87,10.02-1.12,15.55-.71l6.23,34.58,112.76,2.05-.12,38.29-112.39-.69-4.99,9.48-155.66-.54c-1.12-1.7-2.25-3.84-3.1-5.68-.63-1.36-4.93-.53-5.52,1.01,5.42,41.98,10.2,73.99,30.36,111.49l13.76,25.59-26.54,18.21c-16.45-26.38-34.15-58.14-40.64-87.2l-8.05-36-17.1.66c-2.53,8.18-4.67,14.91-8.5,21.74-9.08,16.23-26.52,10.14-40.98,5.86-2.53-.75-5.79-.93-8.49-.28l-23.47,53.58-42.08-23.35ZM273.22,187.18l23.06-5.79-2.31-16.87c-.34-2.45.54-7.1,2.56-8.28,1.91-1.12,4.94-1.75,8.1-2.39l-.54-36.04,158.67.52-5.22-29.48-5.28.25-1.04,20.48-272.38-.24-59.7,2.43c-16.87,23.71-13.62,9.68-16.48,40.69l162.67,2.39,7.87,32.31ZM178.04,103.61l-1.35-7.07-18.02-1.13-3.43,9.17,22.79-.97ZM85.88,146.64l11.5.99,1.54-17.18c.26-2.86-4.59-5.48-7.05-5.69l-29.74-2.51c-5.23-.44-10.73.42-16.09,1.21l-1.21,49.34c-.35,14.08-3.97,26.71-10.4,39.13,24.04,15.42,15-68.43,51.45-65.3ZM464.3,152.07l-.33-27.98-154.39-.69,1.17,37.29,149.18.57c1.38-2.26,4.39-6.5,4.36-9.19ZM575.68,152.48l.05-27.14-106.02-1.77.38,28.16,105.59.76ZM29.73,208.11c12.8-21.86,9.84-57.28,10.5-82.58l-3.8.46c-.83.1-.84,2.45-.86,3.53-.54,27.41.19,49.24-8.96,74.79-.28.78-.31,2.73-.26,3.54.03.61,2.9,1.12,3.39.27ZM207.53,190l59.91-1.92-6.41-27.61-156.61-2.28c.32,3.57,1.06,6.91,1.98,9.87,17.61-1.76,57.55-8.02,60.66,16.53.78,5.79,35.54,5.58,40.47,5.42ZM336.11,296.6c-22.74-39.17-32.07-64.47-38.91-109.11l-6.2,1.25c4.05,19.89,7.79,38.89,14.84,58.01s16.55,35.14,26.79,52.66l3.47-2.81ZM318.91,309.24l9.06-6.55c-10.9-18.66-21.31-36.41-28.44-56.71-6.46-18.37-9.95-36.15-14.08-55.75l-11.48,2.75,7.35,33.21c6.48,29.28,21.94,57.23,37.58,83.04ZM167.16,267.56l31.13-71.83c-11.9-.46-21.75-.81-31.96-3.66-7.29,20.48-20.3,37.3-33.3,56.34l34.13,19.15ZM196.58,214.98l23.67,6.09c17.26,2.64,20.58-12.93,24.83-26.51l-22.53.95c-6.7,8.69-1,17.01-3.54,22.26-.35.72-2.94.15-3.59-.48-5.51-5.32-8.02-13.56-9.83-22.33-4.1,7.02-6.87,13.65-9,20.03Z"/>
  <path d="M274.85,148.97l-152.57.05c-1.42-4.94-1.32-9.44-.32-15.12h152.75c.76,5.38.78,8.79.14,15.08ZM266.8,143.36c1.54,0,3.04-1.51,3.23-1.92s-1.08-1.96-3.7-1.96c-38.29,0-92.95,0-136.7,0-1.5,0-3.21,1.24-2.93,1.92s1.78,1.97,3.41,1.97h136.69Z"/>
</svg>